<?xml version="1.0" encoding="utf-8"?>
<!-- Facebook Logo  -->
<svg version="1.1" id="Layer_1" xmlns="http://www.w3.org/2000/svg" xmlns:xlink="http://www.w3.org/1999/xlink"
	x="0px" y="0px" viewBox="0 0 612 141" style="enable-background:new 0 0 612 141;" xml:space="preserve" >

	<g>

		<path fill="#004A94" d="M64.1,34.9c-6.7,0-8.6,3-8.6,9.5v10.8h17.7l-1.8,17.5h-16v52.9H34.2V72.6H19.9V55.2h14.3V44.7
			c0-17.6,7.1-26.9,26.9-26.9c4.3,0,9.3,0.3,12.4,0.7v16.4"/>

		<path fill="#004A94" d="M74.7,88.2c0-19.7,9.3-34.5,28.8-34.5c10.6,0,17.2,5.5,20.3,12.3V55.2h20.4v70.4h-20.4v-10.6
			c-3,6.8-9.6,12.1-20.3,12.1c-19.5,0-28.8-14.8-28.8-34.4 M96,92.9c0,10.5,3.8,17.4,13.8,17.4c8.7,0,13.2-6.4,13.2-16.4v-7.1
			c0-10.1-4.4-16.4-13.2-16.4c-9.9,0-13.8,7-13.8,17.5V92.9z"/>

		<path fill="#004A94" d="M188.6,53.7c8.3,0,16.1,1.8,20.4,4.7l-4.7,15.1c-3.3-1.6-8.6-3.3-14.2-3.3c-11.5,0-16.6,6.7-16.6,18v4.1
			c0,11.4,5,18,16.6,18c5.6,0,10.9-1.6,14.2-3.3l4.7,15.1c-4.3,3-12.1,4.7-20.4,4.7c-25,0-36.4-13.5-36.4-35v-3.3
			C152.2,67.2,163.6,53.7,188.6,53.7"/>

		<path fill="#004A94" d="M211.8,93v-6.2c0-20,11.4-33.1,34.6-33.1c21.9,0,31.5,13.3,31.5,32.8v11.2h-44.8c0.4,9.6,4.7,13.9,16.6,13.9
			c8,0,16.4-1.6,22.6-4.3l3.8,14.6c-5.6,3-17.2,5.2-27.4,5.2C221.9,127.2,211.8,113.7,211.8,93 M233.1,83.9h25.7v-1.8
			c0-7.7-3.1-13.8-12.4-13.8C236.8,68.3,233.1,74.4,233.1,83.9"/>

		<path fill="#004A94" d="M356.9,92.6c0,19.7-9.5,34.5-29,34.5c-10.6,0-18-5.3-21-12.1v10.6h-20.1V19.8l21.3-1.9v47
			c3.1-6.2,9.9-11.2,19.8-11.2c19.5,0,29,14.8,29,34.4 M335.6,87.7c0-9.9-3.8-17.3-14-17.3c-8.7,0-13.5,6.2-13.5,16.3v7.4
			c0,10.1,4.7,16.3,13.5,16.3c10.2,0,14-7.4,14-17.3V87.7z"/>

		<path fill="#004A94" d="M364,92.1v-3.5c0-20.3,11.5-34.9,35-34.9c23.5,0,35,14.6,35,34.9v3.5c0,20.3-11.5,34.9-35,34.9
			C375.5,127,364,112.4,364,92.1 M412.7,87.1c0-9.3-3.8-16.7-13.8-16.7c-9.9,0-13.8,7.4-13.8,16.7v6.5c0,9.3,3.8,16.7,13.8,16.7
			c9.9,0,13.8-7.4,13.8-16.7V87.1z"/>

		<path fill="#004A94" d="M441.1,92.1v-3.5c0-20.3,11.5-34.9,35-34.9c23.5,0,35,14.6,35,34.9v3.5c0,20.3-11.5,34.9-35,34.9
			C452.7,127,441.1,112.4,441.1,92.1 M489.9,87.1c0-9.3-3.8-16.7-13.8-16.7c-9.9,0-13.8,7.4-13.8,16.7v6.5c0,9.3,3.8,16.7,13.8,16.7
			c9.9,0,13.8-7.4,13.8-16.7V87.1z"/>

		<polyline fill="#004A94"  points="540.5,88.7 561.5,55.2 584.1,55.2 562.1,89.9 585,125.6 562.4,125.6 540.5,91.1 540.5,125.6
			519.2,125.6 519.2,19.8 540.5,17.9 	"/>
	</g>
</svg>
