<?xml version="1.0" encoding="utf-8"?>
<!-- Generator: Adobe Illustrator 22.1.0, SVG Export Plug-In . SVG Version: 6.00 Build 0)  -->
<svg version="1.1" xmlns="http://www.w3.org/2000/svg" xmlns:xlink="http://www.w3.org/1999/xlink" x="0px" y="0px"
	 viewBox="0 0 230.4 92.8" style="enable-background:new 0 0 230.4 92.8;" xml:space="preserve">
<style type="text/css">
	.st0{fill:#A7A7A7;}
	.st1{fill:#FFFFFF;}
	.st2{fill:#C5C5C5;}
</style>
<g id="h_copiar_xA0_Imagem_1_">
</g>
<g id="feliz_xA0_Imagem_1_">
</g>
<g id="em_xA0_Imagem_1_">
</g>
<g id="casa_xA0_Imagem_1_">
</g>
<g id="Camada_2_xA0_Imagem_1_">
	<g>
		<path class="st0" d="M0.9,71.4V1.2h6.6v35.2c1.7-2.7,3.7-4.6,6.1-5.9c2.4-1.3,5.1-1.9,8.2-1.9c4.6,0,8.3,1.3,10.9,3.9
			c2.6,2.6,3.9,6.2,3.9,10.8v28.2h-6.9V47c0-4.2-0.8-7.3-2.5-9.4c-1.7-2-4.3-3.1-7.7-3.1c-2,0-3.8,0.4-5.5,1.2
			c-1.6,0.8-3,1.9-4.1,3.3c-0.8,1.1-1.4,2.3-1.8,3.7c-0.4,1.4-0.5,3.8-0.5,7.3v21.4H0.9z"/>
	</g>
	<g>
		<path class="st0" d="M109.8,91.6V29.9h6.4v7.8c1.5-3,3.5-5.3,6-6.9c2.5-1.6,5.3-2.4,8.3-2.4c5.7,0,10.2,2,13.6,6.1
			c3.4,4.1,5.2,9.5,5.2,16.2c0,6.9-1.7,12.3-5,16.3c-3.4,4-7.9,6-13.5,6c-3.2,0-6-0.8-8.5-2.3c-2.4-1.6-4.4-3.9-5.9-7v27.7H109.8z
			 M116.3,50.8c0,4.7,1.2,8.4,3.6,11.2s5.6,4.2,9.7,4.2c3.9,0,7-1.3,9.2-3.9c2.2-2.6,3.4-6.1,3.4-10.7c0-5.1-1.1-9.1-3.4-12
			c-2.2-2.9-5.4-4.4-9.4-4.4c-4.1,0-7.3,1.4-9.7,4.1C117.5,42.1,116.3,45.9,116.3,50.8z"/>
	</g>
	<g>
		<path class="st0" d="M153.2,91.6V29.9h6.4v7.8c1.5-3,3.5-5.3,6-6.9c2.5-1.6,5.3-2.4,8.3-2.4c5.7,0,10.2,2,13.6,6.1
			c3.4,4.1,5.2,9.5,5.2,16.2c0,6.9-1.7,12.3-5,16.3c-3.4,4-7.9,6-13.5,6c-3.2,0-6-0.8-8.5-2.3c-2.4-1.6-4.4-3.9-5.9-7v27.7H153.2z
			 M159.7,50.8c0,4.7,1.2,8.4,3.6,11.2s5.6,4.2,9.7,4.2c3.9,0,7-1.3,9.2-3.9c2.2-2.6,3.4-6.1,3.4-10.7c0-5.1-1.1-9.1-3.4-12
			c-2.2-2.9-5.4-4.4-9.4-4.4c-4.1,0-7.3,1.4-9.7,4.1C160.9,42.1,159.7,45.9,159.7,50.8z"/>
	</g>
	<g>
		<path class="st0" d="M194.7,91.6l10.6-24.3l-15.4-37.4h7.8l11.4,29.8l12.1-29.8h7.4l-26.3,61.7H194.7z"/>
	</g>
</g>
<g id="Pg_em_casa_casa_xA0_Imagem_1_">
	<g id="Camada_x0020_1_2_">
		<path class="st0" d="M73,83c-16.7,0-30.3-14.2-30.3-31.7c0-0.4,0-0.9,0-1.3c0,0-6.9,0-6.9,0c-1.7,0-3-0.8-3.5-2.1
			c-0.5-1.3,0-2.8,1.2-3.8l31.5-26c4.1-3.3,6.1-4.7,8.1-4.7c2.2,0,4.2,1.7,7.9,4.8l31.1,25.6c1.4,1.2,2,2.7,1.5,4.1
			c-0.5,1.3-1.8,2.1-3.3,2.1l-7.1,0c0,0.4,0,0.9,0,1.3C103.4,68.8,89.8,83,73,83z M55.3,47.6c-1,0-1.9,0.8-2,1.9
			c0,0.4-0.1,0.7-0.1,1.1l0,1.1c0,5.5,2.1,10.8,5.9,14.7c3.8,3.9,8.9,6.1,14.3,6.1c5.4,0,10.5-2.2,14.3-6.1
			c3.8-3.9,5.9-9.2,5.9-14.7l0-1.1c0-0.4,0-0.7-0.1-1.1c-0.1-1.1-1-1.9-2-1.9c-0.1,0-0.1,0-0.2,0c-1.1,0.1-1.9,1.1-1.8,2.3l0.1,0.9
			l0,0.9c0,4.4-1.7,8.6-4.7,11.8c-3.1,3.1-7.1,4.9-11.4,4.9c-4.3,0-8.4-1.7-11.4-4.9c-3-3.1-4.7-7.3-4.7-11.8l0-0.9l0.1-0.9
			c0.1-1.2-0.7-2.2-1.8-2.3C55.4,47.6,55.4,47.6,55.3,47.6z M43.1,22c0-2.3,1.8-4.2,4.1-4.2h4.4c2.2,0,4.1,1.9,4.1,4.2v0.2
			l-12.6,9.9V22z"/>
		<path class="st1" d="M73.2,13.8c2,0,4,1.6,7.7,4.7L112,44.1c2.8,2.3,1.4,5.5-1.6,5.5c0,0-0.1,0-0.1,0h-7.4c0,0.6,0,1.1,0,1.7
			c0,17.3-13.4,31.3-29.9,31.3s-29.9-14-29.9-31.3c0-0.6,0-1.1,0-1.7h-7.4c0,0-0.1,0-0.1,0c-3.3,0-4.1-3.4-1.9-5.2l31.5-26
			C69.2,15.3,71.2,13.8,73.2,13.8 M73.4,67.8c-4.4,0-8.3-1.8-11.2-4.7c-2.9-2.9-4.6-7-4.6-11.5l0-0.9l0.1-0.8
			c0.1-1.4-0.8-2.6-2.1-2.7c-0.1,0-0.2,0-0.2,0c-1.2,0-2.3,1-2.4,2.2c0,0.4-0.1,0.7-0.1,1.1l0,1.1c0,5.8,2.3,11.1,6,15l0,0
			c3.7,3.8,8.9,6.2,14.6,6.2c5.7,0,10.8-2.4,14.6-6.2l0,0c3.7-3.8,6-9.1,6-15l0-1.1c0-0.4,0-0.7-0.1-1.1c-0.1-1.3-1.2-2.2-2.4-2.2
			c-0.1,0-0.2,0-0.2,0c-1.3,0.1-2.3,1.4-2.1,2.7l0.1,0.8l0,0.9c0,4.5-1.8,8.5-4.6,11.5C81.7,66,77.7,67.8,73.4,67.8 M51.6,18.2
			c2,0,3.7,1.7,3.7,3.8l-11.8,9.3V22c0-2.1,1.7-3.8,3.7-3.8H51.6 M73.2,13.1c-2.2,0-4.2,1.5-8.4,4.8l-31.5,26
			c-1.3,1.1-1.9,2.7-1.4,4.2c0.5,1.5,1.9,2.4,3.7,2.4l0.1,0l6.5,0c0,0.3,0,0.6,0,0.9c0,17.7,13.8,32,30.7,32
			c16.9,0,30.7-14.4,30.7-32c0-0.3,0-0.6,0-0.9h6.6l0.1,0c1.7,0,3.2-0.9,3.7-2.4c0.5-1.5-0.1-3.2-1.6-4.5L81.4,17.9
			C77.6,14.8,75.6,13.1,73.2,13.1L73.2,13.1z M73.4,68.6c4.4,0,8.6-1.8,11.7-5c3.1-3.2,4.8-7.5,4.8-12l0-0.9l-0.1-0.9
			c-0.1-1,0.6-1.8,1.5-1.9c0.1,0,0.1,0,0.2,0c0.8,0,1.5,0.7,1.6,1.5c0,0.4,0.1,0.7,0.1,1.1l0,1.1c0,5.4-2.1,10.6-5.8,14.4
			c-3.8,3.9-8.7,6-14,6c-5.3,0-10.3-2.1-14-6c-3.8-3.9-5.8-9-5.8-14.5l0-1.1c0-0.3,0-0.7,0.1-1c0.1-0.9,0.8-1.5,1.6-1.5
			c0.1,0,0.1,0,0.2,0c0.9,0.1,1.6,0.9,1.5,1.9l-0.1,0.9l0,0.9c0,4.6,1.7,8.8,4.8,12C64.8,66.8,69,68.6,73.4,68.6L73.4,68.6z
			 M51.6,17.4h-4.4c-2.5,0-4.5,2-4.5,4.6v9.3v1.6l1.3-1l11.8-9.3l0.3-0.2V22C56.1,19.5,54.1,17.4,51.6,17.4L51.6,17.4z"/>
	</g>
	<g id="Camada_x0020_1_1_">
		<g>
			<g>
				<path class="st2" d="M300.5,17c-10.8,0-19.5-9.1-19.5-20.4c0-0.3,0-0.6,0-0.8c0,0-4.5,0-4.5,0c-1.1,0-1.9-0.5-2.2-1.3
					c-0.3-0.8,0-1.8,0.8-2.4l20.3-16.7c2.6-2.1,3.9-3,5.2-3c1.4,0,2.7,1.1,5.1,3.1l20,16.5c0.9,0.7,1.3,1.7,1,2.6
					c-0.3,0.8-1.1,1.4-2.1,1.4l-4.6,0c0,0.3,0,0.6,0,0.8C320,7.8,311.2,17,300.5,17z M289-5.9c-0.7,0-1.2,0.5-1.3,1.2
					c0,0.2,0,0.5-0.1,0.7l0,0.7c0,3.6,1.4,6.9,3.8,9.5c2.5,2.5,5.7,3.9,9.2,3.9s6.7-1.4,9.2-3.9c2.5-2.5,3.8-5.9,3.8-9.5l0-0.7
					c0-0.2,0-0.5-0.1-0.7c-0.1-0.7-0.6-1.2-1.3-1.2c0,0-0.1,0-0.1,0c-0.7,0.1-1.2,0.7-1.2,1.5l0,0.6l0,0.6c0,2.9-1.1,5.6-3,7.6
					c-2,2-4.6,3.1-7.4,3.1c-2.8,0-5.4-1.1-7.4-3.1c-2-2-3-4.7-3-7.6l0-0.6l0-0.6c0.1-0.7-0.4-1.4-1.2-1.5
					C289.1-5.9,289.1-5.9,289-5.9z M281.2-22.3c0-1.5,1.2-2.7,2.6-2.7h2.9c1.4,0,2.6,1.2,2.6,2.7v0.1l-8.1,6.4V-22.3z"/>
				<path class="st1" d="M300.6-27.6c1.3,0,2.6,1,4.9,3l20,16.5c1.8,1.5,0.9,3.5-1,3.5c0,0,0,0-0.1,0h-4.8c0,0.4,0,0.7,0,1.1
					c0,11.1-8.6,20.1-19.3,20.1s-19.3-9-19.3-20.1c0-0.4,0-0.7,0-1.1h-4.7c0,0,0,0-0.1,0c-2.1,0-2.7-2.2-1.2-3.3l20.3-16.7
					C298-26.6,299.3-27.6,300.6-27.6 M300.7,7.2c-2.8,0-5.3-1.2-7.2-3.1c-1.8-1.9-3-4.5-3-7.4l0-0.6l0-0.5c0.1-0.9-0.5-1.7-1.4-1.7
					c-0.1,0-0.1,0-0.2,0c-0.8,0-1.5,0.6-1.5,1.4c0,0.2,0,0.5-0.1,0.7l0,0.7c0,3.8,1.5,7.2,3.9,9.6l0,0c2.4,2.5,5.7,4,9.4,4
					c3.7,0,7-1.5,9.4-4l0,0c2.4-2.5,3.9-5.9,3.9-9.6l0-0.7c0-0.2,0-0.5-0.1-0.7c-0.1-0.8-0.8-1.4-1.5-1.4c-0.1,0-0.1,0-0.2,0
					c-0.9,0.1-1.5,0.9-1.4,1.7l0,0.5l0,0.6c0,2.9-1.1,5.5-3,7.4C306,6,303.5,7.2,300.7,7.2 M286.7-24.7c1.3,0,2.4,1.1,2.4,2.4
					l-7.6,6v-6c0-1.3,1.1-2.4,2.4-2.4H286.7 M300.6-28.1c-1.4,0-2.7,0.9-5.4,3.1L274.9-8.2c-0.9,0.7-1.2,1.8-0.9,2.7
					c0.3,0.9,1.2,1.5,2.4,1.5l0.1,0l4.2,0c0,0.2,0,0.4,0,0.6c0,11.4,8.9,20.6,19.8,20.6c10.9,0,19.8-9.3,19.8-20.6
					c0-0.2,0-0.4,0-0.6h4.2l0.1,0c1.1,0,2-0.6,2.4-1.5c0.4-1,0-2.1-1-2.9l-20-16.5C303.4-27,302.1-28.1,300.6-28.1L300.6-28.1z
					 M300.7,7.7c2.9,0,5.5-1.1,7.5-3.2c2-2.1,3.1-4.8,3.1-7.7l0-0.6l0-0.6c-0.1-0.6,0.4-1.2,0.9-1.2c0,0,0.1,0,0.1,0
					c0.5,0,1,0.4,1,1c0,0.2,0,0.5,0.1,0.7l0,0.7c0,3.5-1.3,6.8-3.7,9.3c-2.4,2.5-5.6,3.9-9,3.9c-3.4,0-6.6-1.4-9-3.8
					c-2.4-2.5-3.8-5.8-3.8-9.3l0-0.7c0-0.2,0-0.4,0.1-0.7c0.1-0.6,0.5-1,1-1c0,0,0.1,0,0.1,0c0.6,0.1,1,0.6,0.9,1.2l0,0.6l0,0.6
					c0,2.9,1.1,5.7,3.1,7.8C295.2,6.6,297.8,7.7,300.7,7.7L300.7,7.7z M286.7-25.2h-2.9c-1.6,0-2.9,1.3-2.9,2.9v6v1l0.8-0.6l7.6-6
					l0.2-0.2v-0.2C289.5-23.9,288.3-25.2,286.7-25.2L286.7-25.2z"/>
			</g>
		</g>
	</g>
</g>
</svg>
