<?xml version="1.0" encoding="utf-8"?>
<!-- Generator: Adobe Illustrator 22.1.0, SVG Export Plug-In . SVG Version: 6.00 Build 0) -->
<svg version="1.1" xmlns="http://www.w3.org/2000/svg" xmlns:xlink="http://www.w3.org/1999/xlink" x="0px" y="0px"
	 viewBox="0 0 1350.5 997" style="enable-background:new 0 0 1350.5 997;" xml:space="preserve">

	<path fill="#363636" d="M51.5,584.3h1167.9c18.4,0,38.4-15,44.6-33.5l46.3-139.3c6.1-18.4-4-33.5-22.3-33.5H120
		c-18.4,0-38.5,15.1-44.6,33.5L29.1,550.9C23,569.3,33.1,584.3,51.5,584.3z" />

	<polygon fill="#363636" points="669.3,369.3 527.4,396.5 832.3,237.9 512.3,746.2 " />

	<polygon fill="#EC0000" points="647.2,381.4 505.3,408.5 810.2,250 532.2,696.9 " />

	<path fill="#363636" d="M95.7,516.8h19.8l-1.5,11.5H94.2l-4.7-7L95.7,516.8z M94.2,528.2c-2.7,0.1-5-2.1-5.1-4.8c0-0.3,0-0.6,0.1-0.9
		c0.5-3.2,3.2-5.6,6.5-5.7L94.2,528.2z M129,440.2l-28.6,83.5l-10.9-2.4l28.7-83.5l6.2-4.6L129,440.2z M118.2,437.8
		c1-3.1,4.2-4.9,7.4-4.4c2.7,0.6,4.4,3.2,3.8,5.9c-0.1,0.3-0.2,0.6-0.3,0.9L118.2,437.8z M142.6,444.8h-19.8l1.5-11.5h19.8l4.7,7
		L142.6,444.8z M144.1,433.3c2.7-0.1,4.9,2.1,5,4.8c0,0.3,0,0.7-0.1,1c-0.5,3.2-3.2,5.7-6.5,5.7L144.1,433.3z M109.3,521.3
		l28.6-83.5l10.9,2.3l-28.7,83.5l-6.2,4.6L109.3,521.3z M120.2,523.7c-1,3.1-4.2,4.9-7.4,4.4c-2.7-0.6-4.4-3.3-3.7-5.9
		c0.1-0.3,0.2-0.6,0.3-0.8L120.2,523.7z" />

	<path fill="#363636" d="M194.4,516.8h19.8l-1.5,11.5H193l-4.7-7L194.4,516.8z M193,528.2c-2.7,0.1-5-2.1-5-4.9
		c0-0.3,0-0.6,0.1-0.9c0.5-3.2,3.2-5.6,6.5-5.7L193,528.2z M218.2,468.4l-19.1,55.3l-10.9-2.4l19-55.2L218.2,468.4L218.2,468.4z
		 M207.4,465.5l11.5-2.4v1.7v0.1v0.3v0.2v0.3v0.1v0.2v0.2v0.1v0.2v0.1v0.2v0.1v0.2v0.1v0.2v0.1v0.2v0.2v0.1v0.2l-10.9-2.4l0,0l0,0
		l0,0l0,0l0,0l0,0l0,0l0,0l0,0l0,0l0,0l0,0l0,0l0,0l0,0l0,0l0,0l0,0l0,0l0,0l0,0l0,0l0,0L207.4,465.5z M207.4,465.4l10.2-6.7v-0.2
		v0.1l0.1,0.2l0.1,0.1v0.1v0.2l0.1,0.1v0.2l0.1,0.1v0.1v0.2v0.1l0.1,0.1v0.2l0,0v0.2v0.1v0.2v0.2v0.2v0.1v0.2v0.1v0.2v0.1v0.2v0.1
		v0.3v0.2v0.3v0.1l-11.5,2.4l0,0l0,0l0,0l0,0l0,0l0,0l0,0l0,0l0,0l0,0l0,0l0,0l0,0l0,0l0,0L207.4,465.4z M207.5,465.5l6.7-10.1h-0.1
		l0.1,0.1h0.1h0.1h0.1l0.2,0.1l0.1,0.1h0.1h0.1l0.1,0.1l0.1,0.1l0.1,0.1h0.1l0.1,0.1l0.1,0.1l0.1,0.1l0.1,0.2h0.1l0.1,0.1v0.1h0.1
		l0.1,0.2h0.1l0.1,0.2l0.1,0.1h0.1l0.1,0.2l0.1,0.1v0.1l0.1,0.2l0,0l0.1,0.2v0.1l-10.2,6.7l0,0l0,0l0,0l0,0l0,0l0,0l0,0l0,0l0,0l0,0
		L207.5,465.5z M207.7,465.7l1.5-11.5h0.6h0.2h0.4h0.2h0.1h0.2h0.2h0.1h0.2h0.1h0.2h0.2h0.2h0.1h0.2h0.1h0.2h0.1h0.2h0.1h0.2h0.1
		h0.2l0.1,0.1h0.2h0.1h0.2l-6.7,10.1l0,0l0,0h0.2l0,0L207.7,465.7z M176.3,454.1H209l-1.5,11.5h-32.7l-4.7-7L176.3,454.1z
		 M174.8,465.6c-2.7,0.1-5-2.1-5.1-4.8c0-0.3,0-0.6,0.1-0.9c0.5-3.2,3.2-5.6,6.5-5.7L174.8,465.6z M148.5,521.2l21.6-62.5l10.9,2.4
		l-21.5,62.6l-6.2,4.6L148.5,521.2z M159.4,523.7c-1.1,3.1-4.2,4.9-7.4,4.4c-2.7-0.6-4.4-3.4-3.7-6.1c0.1-0.3,0.1-0.5,0.2-0.7
		L159.4,523.7z M134.9,516.7h19.8l-1.5,11.5h-19.8l-4.7-7L134.9,516.7z M133.4,528.2c-2.7,0.1-5-2.1-5-4.8c0-0.3,0-0.6,0.1-0.9
		c0.5-3.2,3.2-5.6,6.5-5.7L133.4,528.2z M168.3,440.1l-28.7,83.5l-10.9-2.4l28.7-83.5l6.2-4.6L168.3,440.1z M157.4,437.8
		c1-3.1,4.2-4.9,7.4-4.4c2.7,0.6,4.4,3.3,3.7,5.9c-0.1,0.3-0.2,0.6-0.3,0.8L157.4,437.8z M216.5,444.7h-54.4l1.5-11.5H218
		L216.5,444.7z M237.2,443.3l-10.1,6.8l0,0l-0.2-0.3l-0.2-0.3l-0.3-0.3l-0.3-0.2l-0.2-0.3l-0.2-0.2l-0.2-0.3l-0.3-0.2l-0.3-0.2
		l-0.2-0.2l-0.3-0.3l-0.3-0.2l-0.2-0.2l-0.3-0.2l-0.3-0.1l-0.3-0.2l-0.3-0.2l-0.3-0.1l-0.3-0.2l-0.3-0.1l-0.4-0.1l-0.3-0.1h-0.4
		l-0.4-0.1h-0.4l-0.4-0.1h-0.4h-0.5h-0.4h-0.5h-1l1.5-11.5h0.8h0.7h0.7h0.7l0.7,0.1h0.7l0.7,0.2l0.7,0.1l0.7,0.2l0.7,0.2l0.7,0.2
		l0.7,0.2l0.6,0.2l0.6,0.3l0.6,0.3l0.6,0.3l0.6,0.3l0.6,0.3l0.6,0.4l0.5,0.4l0.6,0.4l0.5,0.4l0.6,0.5l0.5,0.4l0.5,0.5l0.5,0.5
		l0.4,0.5l0.5,0.5l0.4,0.6l0.4,0.5l0.4,0.6l0.3,0.6L237.2,443.3z M238.6,466.2l-10.8-2.4l0,0l0.2-0.5l0.2-0.5l0.1-0.6l0.1-0.5
		l0.1-0.5l0.1-0.5l0.1-0.5l0.1-0.4v-0.5v-0.4v-0.5v-0.5v-1.7v-0.4v-0.4V455v-0.4v-0.4l-0.1-0.4l-0.1-0.4l-0.1-0.3l-0.2-0.4l-0.1-0.3
		l-0.1-0.4l-0.2-0.3l-0.2-0.4l-0.2-0.3l-0.2-0.3l-0.2-0.3l10.1-6.8l0.4,0.6l0.3,0.6l0.3,0.6l0.3,0.6l0.3,0.6l0.2,0.7l0.2,0.6
		l0.2,0.7l0.2,0.6l0.2,0.7l0.2,0.7l0.1,0.7l0.1,0.7l0.1,0.7v0.7v0.7v0.7v1.5v0.7v0.7v0.7l-0.1,0.7l-0.1,0.8l-0.1,0.7l-0.2,0.8
		l-0.1,0.7l-0.2,0.8l-0.2,0.8l-0.2,0.7l-0.2,0.8l-0.2,0.8L238.6,466.2z M208,521.3l19.8-57.4l10.9,2.4l-19.8,57.4l-6.2,4.6
		L208,521.3z M218.9,523.7c-1.1,3.1-4.2,4.9-7.4,4.4c-2.7-0.6-4.4-3.4-3.7-6.1c0.1-0.2,0.1-0.5,0.2-0.7L218.9,523.7z" />

	<path fill="#363636" d="M295.8,454.1h24.7l-1.5,11.5h-24.7l-4.7-7L295.8,454.1z M294.3,465.6c-2.7,0.1-5-2.1-5.1-4.8
		c0-0.3,0-0.6,0.1-0.9c0.5-3.2,3.2-5.7,6.5-5.7L294.3,465.6z M268.2,521.2l21.5-62.5l10.8,2.4L279,523.7l-6.2,4.6L268.2,521.2z
		 M279,523.6c-1.1,3.1-4.2,4.9-7.4,4.4c-2.7-0.6-4.4-3.3-3.8-6c0.1-0.3,0.2-0.6,0.3-0.9L279,523.6z M254.5,516.6h19.8l-1.5,11.5H253
		l-4.7-7L254.5,516.6z M253.1,528.1c-2.7,0.1-5-2.1-5.1-4.8c0-0.3,0-0.6,0.1-0.9c0.5-3.2,3.2-5.6,6.5-5.7L253.1,528.1z M280.8,461.1
		l-21.5,62.6l-10.9-2.4l21.5-62.5l6.2-4.6L280.8,461.1z M269.8,458.7c1-3.1,4.2-5,7.4-4.4c2.7,0.6,4.4,3.4,3.7,6.1
		c-0.1,0.2-0.1,0.5-0.2,0.7L269.8,458.7z M251.2,454.1h24.9l-1.5,11.5h-24.9l-4.7-7L251.2,454.1z M249.7,465.6
		c-2.7,0.1-4.9-2.1-5-4.8c0-0.3,0-0.7,0.1-1c0.5-3.2,3.2-5.6,6.5-5.7L249.7,465.6z M263,440.1l-7.1,20.9l-10.9-2.4l7.2-20.9l6.2-4.6
		L263,440.1z M252.2,437.8c1.1-3.1,4.2-4.9,7.4-4.4c2.7,0.6,4.4,3.2,3.8,5.9c-0.1,0.3-0.2,0.6-0.3,0.9L252.2,437.8z M326.3,444.8
		h-69.4l1.5-11.5h69.3l4.7,7L326.3,444.8z M327.8,433.3c2.7-0.1,5,2.1,5.1,4.8c0,0.3,0,0.6-0.1,0.9c-0.5,3.2-3.2,5.6-6.5,5.7
		L327.8,433.3z M314.4,458.8l7.2-20.9l10.9,2.3l-7.1,20.9l-6.2,4.6L314.4,458.8z M325.3,461.2c-1.1,3.1-4.2,4.9-7.4,4.4
		c-2.7-0.6-4.4-3.3-3.7-6c0.1-0.3,0.1-0.5,0.2-0.7L325.3,461.2z" />

	<path fill="#363636" d="M403.6,485.7l-6.6-8.5l0,0l0.5-0.4l0.5-0.5l0.5-0.4l0.4-0.4l0.5-0.4l0.4-0.4l0.5-0.4l0.4-0.5l0.5-0.4
		l0.4-0.5l0.3-0.4l0.4-0.5l0.3-0.4l0.3-0.5l0.3-0.4l0.3-0.5l0.3-0.4l0.3-0.5l0.3-0.5l0.3-0.5l0.3-0.4l0.2-0.5l0.3-0.4l0.3-0.5
		l0.2-0.5l0.2-0.5l0.2-0.5l0.2-0.5l0.2-0.5l0.2-0.5l0.2-0.5l0.2-0.5l10.9,2.4l-0.3,0.7l-0.3,0.7l-0.3,0.7l-0.3,0.7l-0.3,0.7
		l-0.3,0.7l-0.3,0.7l-0.3,0.7l-0.4,0.7l-0.3,0.6l-0.4,0.7l-0.5,0.7l-0.4,0.6l-0.5,0.6l-0.4,0.7l-0.5,0.6l-0.4,0.6l-0.5,0.6l-0.5,0.6
		l-0.5,0.6l-0.5,0.6l-0.5,0.6l-0.5,0.6l-0.5,0.6l-0.6,0.6l-0.6,0.5l-0.6,0.6l-0.6,0.5l-0.6,0.6l-0.6,0.6l-0.6,0.5L403.6,485.7
		L403.6,485.7z M380.9,494.8l1.5-11.5h0.4h0.5h0.4h0.5h0.4h0.4l0.4-0.1h0.5l0.4-0.1h0.5l0.4-0.2l0.5-0.1l0.4-0.1l0.5-0.2l0.4-0.2
		l0.5-0.1l0.4-0.2l0.5-0.2l0.5-0.2l0.5-0.3l0.4-0.2l0.5-0.2l0.4-0.2l0.5-0.3l0.5-0.3l0.4-0.3l0.5-0.3l0.5-0.3l0.5-0.3l0.5-0.3
		l0.5-0.4l0.5-0.4l6.6,8.5l-0.6,0.5l-0.7,0.5l-0.7,0.5l-0.6,0.5l-0.7,0.4l-0.7,0.5l-0.7,0.4l-0.7,0.4l-0.7,0.5l-0.7,0.4l-0.7,0.3
		l-0.7,0.4l-0.7,0.3l-0.7,0.3l-0.7,0.3l-0.7,0.3l-0.7,0.3l-0.7,0.3l-0.7,0.2l-0.7,0.2L389,494l-0.7,0.2l-0.7,0.1l-0.7,0.2l-0.7,0.1
		l-0.7,0.2h-0.7l-0.7,0.1h-0.7h-0.7h-0.7h-0.7L380.9,494.8z M345.8,483.3h36.6l-1.5,11.5h-36.6l-4.7-7L345.8,483.3z M344.3,494.8
		c-2.7,0.1-5-2.1-5-4.8c0-0.3,0-0.6,0.1-0.9c0.5-3.2,3.2-5.6,6.5-5.7L344.3,494.8z M337.5,494.1l2.1-6.2l10.9,2.4l-2.1,6.2l-11-2.3
		L337.5,494.1z M348.4,496.6l-11.5,2.2v-0.1v-0.2v-1.1v-0.2v-0.4v-0.2v-0.2v-0.2v-0.2V496v-0.2v-0.1v-0.2v-0.2v-0.1v-0.1v-0.2v-0.1
		v-0.2v-0.1v-0.2v-0.1l11,2.2l0,0l0,0l0,0l0,0l0,0l0,0l0,0l0,0l0,0l0,0l0,0l0,0l0,0l0,0l0,0l0,0l0,0L348.4,496.6z M348.3,496.2
		l-10.1,6.9l0,0l-0.1-0.1v-0.1v-0.1v-0.2l0,0v-0.2v-0.1l-0.1-0.2v-0.1V502v-0.1v-0.1v-0.2v-0.1v-0.1v-0.2v-0.1V501v-0.1v-0.2v-0.1
		v-0.2v-0.1v-0.1V500v-0.2v-0.1v-0.3v-0.2v-0.3l11.5-2.2l0,0l0,0l0,0l0,0l0,0l0,0l0,0l0,0l0,0l0,0l0,0l0,0l0,0l0,0L348.3,496.2z
		 M348.1,496l-6.9,10h0.1h-0.1L341,506h-0.1h-0.1l-0.1-0.1l-0.2-0.1h-0.1l-0.2-0.1h-0.1l-0.1-0.1l-0.1-0.1h-0.1l-0.1-0.1h-0.1
		l-0.1-0.1l-0.1-0.1l-0.1-0.5l0,0l-0.1-0.1l-0.1-0.1v-0.1l-0.1-0.1l-0.1-0.2h-0.1V504l-0.1-0.1v-0.1l-0.1-0.1v-0.1l-0.1-0.1v-0.2
		h-0.1l10.1-6.9l0,0l0,0l0,0l0,0l0,0l0,0l0,0l0,0l0,0l0,0l0,0l0,0L348.1,496z M347.5,495.8l-1.5,11.5h-0.4h-0.2H345h-0.2h-0.3h-0.1
		h-0.2h-0.1h-0.2h-0.1h-0.2h-0.2h-0.2h-0.1H343h-0.1h-0.2h-0.1l-0.2-0.1h-0.1h-0.2l-0.1-0.1h-0.2h-0.1l-0.2-0.1h-0.1l-0.2-0.1
		l6.8-10l0,0H348l0,0h-0.1l0,0h-0.1l0,0h-0.2L347.5,495.8z M394.6,507.3H346l1.5-11.5H396l4.7,7L394.6,507.3z M396.1,495.8
		c2.7-0.1,4.9,2,5,4.7c0,0.3,0,0.7-0.1,1c-0.5,3.2-3.2,5.7-6.5,5.7L396.1,495.8z M382.7,521.2l7.2-20.9l10.9,2.4l-7.3,20.9l-6.2,4.6
		L382.7,521.2z M393.4,523.7c-1,3.1-4.2,4.9-7.4,4.4c-2.7-0.6-4.4-3.3-3.8-6c0.1-0.3,0.2-0.6,0.3-0.9L393.4,523.7z M339.4,516.7
		h49.3l-1.5,11.5h-49.4L339.4,516.7z M318.7,518.1l10.1-6.7l0,0l0.2,0.3l0.2,0.3l0.2,0.3l0.2,0.3l0.2,0.3l0.2,0.3l0.2,0.2l0.3,0.2
		l0.2,0.2l0.3,0.2l0.2,0.2l0.3,0.2l0.3,0.2l0.3,0.2l0.3,0.1l0.3,0.2l0.3,0.1l0.3,0.2l0.3,0.1l0.3,0.1l0.3,0.1l0.4,0.2l0.3,0.1h0.4
		h0.4l0.5,0.1h0.4h0.5h0.4h0.5h0.5h0.5l-1.5,11.5h-0.8h-0.7h-0.7h-0.7h-0.7l-0.7-0.1l-0.7-0.2l-0.7-0.1l-0.7-0.2l-0.7-0.2l-0.7-0.2
		l-0.7-0.2l-0.6-0.2l-0.6-0.3l-0.6-0.2l-0.6-0.3l-0.6-0.3l-0.6-0.3l-0.6-0.4l-0.5-0.3l-0.6-0.4l-0.5-0.4l-0.6-0.5l-0.5-0.5l-0.5-0.5
		l-0.5-0.5l-0.4-0.5l-0.5-0.5l-0.4-0.6l-0.4-0.5l-0.4-0.6L318.7,518.1L318.7,518.1z M317.3,495.1l10.9,2.4l0,0l-0.2,0.5l-0.2,0.6
		l-0.2,0.5l-0.1,0.5l-0.1,0.5l-0.1,0.5l-0.1,0.5v0.5v0.4v0.5v0.5v0.4v1.7v0.4v0.4v0.4v0.4v0.4l0.1,0.4l0.1,0.4l0.1,0.4l0.2,0.4
		l0.1,0.4l0.2,0.3l0.1,0.4l0.2,0.4l0.2,0.3l0.2,0.4l0.2,0.3l-10.1,6.7l-0.3-0.6l-0.3-0.6l-0.3-0.6l-0.3-0.6l-0.3-0.6l-0.2-0.6
		l-0.2-0.7l-0.2-0.7l-0.2-0.6l-0.2-0.7l-0.2-0.7l-0.1-0.7l-0.1-0.7l-0.1-0.7v-0.7v-0.7v-0.7v-1.5v-0.8v-0.7v-0.7l0.1-0.7l0.1-0.8
		l0.1-0.7l0.2-0.8l0.2-0.7l0.2-0.8l0.2-0.8l0.2-0.7l0.2-0.8L317.3,495.1L317.3,495.1z M338.9,466.3l-10.8,31.4l-10.9-2.4l10.8-31.3
		L338.9,466.3L338.9,466.3z M343.9,442.4l6.4,8.7l0,0l-0.5,0.4l-0.5,0.4l-0.5,0.4l-0.5,0.4l-0.5,0.4l-0.4,0.4l-0.5,0.5l-0.5,0.4
		L346,455l-0.4,0.4l-0.4,0.5l-0.4,0.4l-0.4,0.5l-0.4,0.5l-0.3,0.5l-0.3,0.4l-0.3,0.5l-0.3,0.5l-0.3,0.5l-0.3,0.5l-0.3,0.5l-0.2,0.5
		l-0.3,0.5l-0.3,0.5l-0.2,0.5l-0.3,0.5l-0.2,0.5l-0.2,0.5l-0.2,0.6l-0.2,0.5l-0.2,0.5l-0.1,0.5l-10.9-2.4l0.3-0.8l0.2-0.7l0.3-0.8
		l0.3-0.7l0.3-0.8l0.3-0.7l0.3-0.7l0.4-0.7l0.4-0.7l0.4-0.7l0.4-0.7l0.5-0.7l0.4-0.7l0.5-0.7l0.5-0.6l0.5-0.7l0.5-0.7l0.5-0.6
		l0.5-0.7l0.5-0.6l0.6-0.6l0.6-0.6l0.6-0.6l0.6-0.6l0.6-0.6l0.6-0.6l0.6-0.6l0.6-0.6l0.6-0.5l0.7-0.6l0.7-0.5l0.7-0.5L343.9,442.4z
		 M367.9,433.3l-1.5,11.5H366h-0.5H365h-0.5h-0.5h-0.5l-0.5,0.1l-0.5,0.1H362l-0.5,0.1l-0.5,0.1l-0.5,0.1l-0.5,0.2l-0.5,0.1
		l-0.5,0.2l-0.5,0.2l-0.5,0.2l-0.5,0.2l-0.5,0.2l-0.5,0.2l-0.5,0.2l-0.5,0.2l-0.5,0.3l-0.5,0.3l-0.5,0.3l-0.6,0.6l-0.5,0.3l-0.5,0.3
		l-0.5,0.4l-0.6,0.3l-0.5,0.4l-0.5,0.4l-6.4-8.7l0.8-0.5l0.7-0.5l0.7-0.5l0.7-0.5l0.7-0.5l0.7-0.5l0.7-0.4l0.7-0.4l0.7-0.5l0.7-0.4
		l0.7-0.4l0.7-0.3l0.8-0.3l0.7-0.3l0.7-0.3l0.7-0.3l0.8-0.3l0.7-0.2l0.8-0.2l0.7-0.2l0.8-0.2l0.7-0.2l0.8-0.2l0.8-0.2l0.7-0.1
		l0.8-0.1h0.8l0.8-0.1h0.7h0.8h0.8L367.9,433.3z M398,444.8h-31.6l1.5-11.5h31.6L398,444.8z M417.5,443.5l-10.5,6.4l0,0l-0.2-0.3
		l-0.2-0.3l-0.2-0.3l-0.2-0.3l-0.2-0.3l-0.2-0.2l-0.2-0.2l-0.2-0.2l-0.2-0.2l-0.2-0.3l-0.3-0.2l-0.2-0.1l-0.2-0.2l-0.2-0.2l-0.3-0.2
		l-0.2-0.1l-0.3-0.2h-0.3l-0.2-0.2h-0.3l-0.2-0.4l-0.3-0.1h-0.3h-0.3l-0.3-0.1h-0.3h-0.4h-0.4h-0.4H399h-0.9l1.5-11.5h0.7h0.7h0.7
		h0.7l0.7,0.1h0.7l0.7,0.2l0.7,0.1l0.6,0.2l0.6,0.2l0.7,0.2l0.6,0.3l0.6,0.2l0.6,0.2l0.6,0.3l0.5,0.3l0.6,0.3l0.6,0.3l0.5,0.3
		l0.5,0.4l0.5,0.4l0.6,0.5l0.4,0.4l0.5,0.5l0.5,0.5l0.4,0.5l0.4,0.5l0.4,0.5l0.3,0.5l0.4,0.6l0.3,0.5l0.3,0.6L417.5,443.5z
		 M418.5,465.3l-10.9-2.5l0,0l0.2-0.5l0.1-0.5l0.2-0.5l0.1-0.4l0.1-0.5l0.1-0.5l0.1-0.4v-0.5v-0.4v-0.4v-0.5v-0.4V457v-0.4v-0.4
		v-0.8V455v-0.4v-0.3v-0.4l-0.1-0.4l-0.1-0.3v-0.4l-0.2-0.3l-0.1-0.4l-0.2-0.3l-0.1-0.4l-0.2-0.3l-0.1-0.3l-0.2-0.4l-0.2-0.3
		l10.5-6.4l0.3,0.6l0.3,0.6l0.3,0.6l0.2,0.6l0.2,0.6l0.3,0.6l0.2,0.6l0.2,0.6l0.2,0.6l0.1,0.6l0.2,0.7l0.1,0.6l0.1,0.7l0.1,0.7v0.7
		v0.7v2.1v0.7v0.7v0.7l-0.1,0.7l-0.1,0.7l-0.2,0.7v0.7l-0.2,0.7l-0.1,0.7l-0.2,0.7l-0.2,0.7l-0.2,0.7l-0.2,0.7L418.5,465.3z
		 M387.3,465l10.2-6.5l0,0l0.1,0.2l0.1,0.3l0.1,0.2l0.1,0.3l0.1,0.2v0.2l0.1,0.3l0.1,0.3v0.2v0.3v0.3v0.2v0.3v0.3v1.7v0.2v0.3v0.3
		v0.2v0.3l-0.1,0.3v0.2v0.3l-0.1,0.3v0.2L398,467v0.3L387,465l0,0l0,0v-0.1v-0.3l0,0l0,0l0,0l0,0l0,0l0,0l0,0l0,0l0,0l0,0l0,0l0,0
		l0,0l0,0v0.1l0,0l0,0l0,0l0,0L387.3,465z M388.1,465.7l1.5-11.5h0.6h0.2h0.3h0.3h0.3h0.2h0.3h0.3h0.3h0.2l0.3,0.1h0.3l0.2,0.1
		l0.3,0.2h0.2l0.3,0.2l0.2,0.1l0.2,0.2l0.3,0.1l0.2,0.2l0.2,0.2l0.3,0.2l0.2,0.2l0.2,0.2l0.2,0.2l0.2,0.2l0.2,0.3l0.2,0.2l0.2,0.2
		l0.1,0.2l0.2,0.2l-10.2,6.5l0,0l0,0l0,0l0,0l0,0l0,0l0,0l0,0l0,0l0,0l0,0l0,0l0,0l0,0l0,0l0,0l0,0h0.1l0,0h-0.1L388.1,465.7z
		 M361.8,454.1h27.7l-1.5,11.5h-27.7L361.8,454.1z M359.3,466.3l-6.1-8.8l-0.2,0.2l0.2-0.2l0.2-0.2l0.3-0.2l0.2-0.2l0.2-0.2l0.2-0.1
		l0.2-0.2l0.2-0.2l0.3-0.2l0.3-0.1l0.3-0.2l0.2-0.1l0.3-0.1l0.2-0.1l0.3-0.1l0.3-0.2h0.2l0.3-0.1l0.3-0.1h0.3h0.3l0.3-0.1h0.3h0.3
		l0.3-0.1h0.3h0.3h0.3h0.3h0.3h0.6l-1.5,11.5h-0.2l0,0l0,0l0,0l0,0l0,0l0,0l0,0l0,0l0,0l0,0l0,0l0,0l0,0L359.3,466.3z M358.4,467.4
		l-10.9-2.5v0.1l0.1-0.3l0.1-0.2l0.1-0.3l0.1-0.3l0.1-0.2l0.2-0.2l0.1-0.3l0.1-0.3l0.2-0.3l0.1-0.2l0.2-0.3l0.2-0.2l0.1-0.2l0.2-0.2
		l0.2-0.2l0.2-0.3l0.2-0.2l0.2-0.2l0.2-0.2l0.2-0.2l0.2-0.2l0.2-0.2l0.2-0.2l0.2-0.2l0.2-0.2l0.2-0.2l0.2-0.2l0.2-0.2l0.2-0.2
		l0.2-0.2l0.2-0.2l0.2-0.2l6.1,8.8l0,0l0,0h-0.1l0,0l0,0h-0.1l0,0l0,0l0,0l0,0l0,0l0,0l0,0l0,0l0,0l0,0l0,0l0,0l0,0l0,0l0,0l0,0l0,0
		l0,0l0,0l0,0l0,0l0,0l0,0v0.1l0,0L358.4,467.4z M345.3,471.3l2.2-6.3l10.9,2.5l-2.2,6.3l-6.2,4.5L345.3,471.3z M356.2,473.7
		c-1.1,3.1-4.2,4.9-7.4,4.4c-2.7-0.6-4.4-3.3-3.7-6c0.1-0.3,0.1-0.5,0.3-0.8L356.2,473.7z M383.7,478.2H350l1.5-11.5h33.7
		L383.7,478.2z M386,466.4l6.4,8.6l0,0l-0.2,0.2l-0.2,0.2l-0.2,0.1l-0.2,0.2l-0.2,0.1l-0.3,0.2l-0.3,0.2l-0.2,0.1l-0.3,0.2l-0.2,0.2
		l-0.2,0.1l-0.3,0.2l-0.3,0.1l-0.2,0.2l-0.3,0.1l-0.3,0.1l-0.3,0.1h-0.3l-0.3,0.1l-0.3,0.1h-0.3l-0.3,0.1h-0.3H386h-0.3h-0.3h-0.3
		h-0.3h-0.3h-0.2h-0.6l1.5-11.5h0.3l0,0h0.1l0,0l0,0l0,0l0,0l0,0l0,0l0,0l0,0l0,0L386,466.4z M387,465l10.9,2.3v0.1l-0.1,0.3
		l-0.1,0.2l-0.1,0.3l-0.1,0.3l-0.1,0.2l-0.1,0.2l-0.1,0.2l-0.1,0.2l-0.2,0.3v0.2l-0.2,0.3l-0.1,0.2l-0.2,0.2l-0.2,0.2l-0.2,0.2
		l-0.1,0.3l-0.2,0.2l-0.1,0.2l-0.2,0.2l-0.2,0.2l-0.2,0.3l-0.2,0.2l-0.2,0.2l-0.2,0.2l-0.2,0.2l-0.2,0.2l-0.2,0.2l-0.2,0.2l-0.3,0.2
		l-0.2,0.2l-0.2,0.2l-0.2,0.2l-6.6-8.7l0,0l0,0l0,0l0,0l0,0l0,0l0,0l0,0l0,0l0,0l0,0l0,0l0,0l0,0l0,0l0,0l0,0l0,0l0,0l0,0l0,0l0,0
		l0,0l0,0l0,0l0,0l0,0l0,0v-0.1l0,0l0,0v-0.1L387,465z" />

	<path fill="#363636" d="M434.1,516.8h54.4l-1.5,11.5h-54.4L434.1,516.8z M413.4,518.2l10.2-6.7l0,0l0.2,0.3l0.2,0.3l0.2,0.3
		l0.2,0.3l0.2,0.3l0.2,0.3l0.2,0.2l0.3,0.2l0.2,0.2l0.3,0.2l0.2,0.2l0.3,0.2l0.3,0.2l0.3,0.2l0.3,0.1l0.3,0.2l0.3,0.1l0.3,0.2
		l0.3,0.1l0.3,0.1l0.3,0.1l0.4,0.2l0.3,0.1h0.4h0.4l0.5,0.1h0.4h0.5h0.4h0.5h0.5h0.5l-1.5,11.5h-0.8h-0.7h-0.7h-0.7h-0.7l-0.7-0.1
		l-0.7-0.2l-0.7-0.1l-0.7-0.2l-0.7-0.2l-0.7-0.2l-0.7-0.2l-0.6-0.2l-0.6-0.3L422,526l-0.6-0.3l-0.6-0.3l-0.6-0.3l-0.6-0.4l-0.5-0.3
		l-0.5-0.5l-0.5-0.4l-0.6-0.5l-0.5-0.5l-0.5-0.5l-0.5-0.5l-0.4-0.5l-0.5-0.5l-0.4-0.6l-0.4-0.5l-0.4-0.6l-0.3-0.6L413.4,518.2z
		 M412,495.2l10.9,2.4l0,0l-0.2,0.5l-0.2,0.6l-0.1,0.5l-0.2,0.5l-0.1,0.5l-0.1,0.5l-0.1,0.5v0.5v0.4v0.5v0.5v0.4v1.7v0.4v0.4v0.4
		v0.4v0.4l0.1,0.4l0.1,0.4l0.1,0.4l0.2,0.4l0.1,0.4l0.2,0.3l0.1,0.4l0.2,0.4l0.2,0.3l0.2,0.4l0.2,0.3l-10.2,6.7l-0.3-0.6l-0.4-0.7
		l-0.3-0.6l-0.3-0.6l-0.3-0.6l-0.2-0.6l-0.2-0.7l-0.2-0.7l-0.2-0.6l-0.2-0.7l-0.2-0.7l-0.1-0.7l-0.1-0.7l-0.1-0.7V508v-0.7v-0.7
		v-1.5v-0.8v-0.7v-0.7l0.1-0.7l0.2-0.8l0.1-0.7l0.2-0.8l0.2-0.7l0.2-0.8l0.2-0.8l0.2-0.7l0.2-0.8L412,495.2L412,495.2z M433.7,466.3
		l-10.8,31.4l-10.9-2.4l10.8-31.3L433.7,466.3L433.7,466.3z M438.7,442.4l6.4,8.7l0,0l-0.5,0.4L444,452l-0.5,0.4l-0.5,0.4l-0.5,0.4
		l-0.4,0.4l-0.5,0.5l-0.5,0.4l-0.4,0.5l-0.4,0.4l-0.4,0.5l-0.4,0.4l-0.4,0.5l-0.3,0.5l-0.4,0.5l-0.3,0.4l-0.3,0.5l-0.3,0.5l-0.3,0.5
		l-0.3,0.5l-0.3,0.5l-0.3,0.5l-0.3,0.5l-0.3,0.5l-0.2,0.5l-0.3,0.5l-0.2,0.5l-0.2,0.5l-0.2,0.6l-0.2,0.5l-0.2,0.5l-0.2,0.5
		l-10.9-2.4l0.3-0.8l0.3-0.7l0.3-0.8l0.3-0.7l0.3-0.8l0.3-0.7l0.3-0.7l0.4-0.7l0.4-0.7l0.4-0.7l0.4-0.7l0.5-0.7l0.4-0.7l0.5-0.7
		l0.5-0.6l0.5-0.7l0.5-0.7l0.5-0.6l0.5-0.7l0.5-0.6l0.6-0.6l0.6-0.6l0.6-0.6l0.6-0.6l0.6-0.6l0.6-0.6l0.6-0.6l0.6-0.6l0.6-0.5
		l0.7-0.6l0.7-0.5L438.7,442.4L438.7,442.4z M462.7,433.3l-1.5,11.5h-0.5h-0.5h-0.5h-0.5h-0.5h-0.5l-0.5,0.1l-0.5,0.1h-0.5l-0.5,0.4
		l-0.5,0.1l-0.5,0.1l-0.5,0.2l-0.5,0.1l-0.5,0.2l-0.5,0.2l-0.5,0.2l-0.5,0.2l-0.5,0.2l-0.5,0.2l-0.5,0.2l-0.5,0.2l-0.5,0.3l-0.5,0.3
		l-0.5,0.3l-0.6,0.3l-0.5,0.3l-0.5,0.3l-0.5,0.4l-0.6,0.3l-0.5,0.4l-0.5,0.4l-6.4-8.7l0.7-0.5l0.7-0.5l0.7-0.5l0.7-0.5l0.7-0.5
		l0.7-0.5l0.7-0.4l0.7-0.4l0.7-0.5l0.7-0.4l0.8-0.4l0.7-0.3l0.7-0.3l0.7-0.3l0.7-0.3l0.8-0.3l0.7-0.3l0.7-0.2l0.9-0.2l0.7-0.2
		l0.8-0.2l0.8-0.2l0.7-0.2l0.8-0.2l0.8-0.1l0.7-0.1h0.8l0.8-0.1h0.7h0.8h0.8L462.7,433.3z M510.6,444.8h-49.4l1.5-11.5h49.4l4.8,7
		L510.6,444.8z M512.1,433.3c2.7-0.1,5,2.1,5.1,4.8c0,0.3,0,0.6-0.1,0.9c-0.5,3.2-3.2,5.7-6.5,5.7L512.1,433.3z M498.9,458.8
		l7.1-20.9l10.9,2.3l-7.1,20.9l-6.2,4.6L498.9,458.8z M509.8,461.1c-1,3.1-4.1,5-7.4,4.5c-2.7-0.6-4.4-3.3-3.7-6
		c0.1-0.3,0.1-0.5,0.2-0.8L509.8,461.1z M457.5,454.3H505l-1.5,11.5h-47.6L457.5,454.3z M454.3,466.5l-6.3-8.7l0,0l0.2-0.2l0.2-0.2
		l0.3-0.2l0.2-0.2l0.3-0.1l0.3-0.2l0.3-0.1l0.2-0.2l0.3-0.2l0.3-0.1l0.3-0.1l0.2-0.1l0.3-0.1l0.3-0.2l0.3-0.1l0.3-0.1h0.3l0.3-0.1
		l0.3-0.1h0.3l0.3-0.1h0.3l0.3-0.1h0.3h0.3h0.3h0.3h0.3h0.3h0.3h0.6l-1.5,11.5h-0.3l0,0h-0.1l0,0l0,0l0,0l0,0l0,0l0,0l0,0l0,0l0,0
		h-0.1l0,0l0,0l0,0l0,0h-0.1l-0.8,0.1h-0.1l0,0L454.3,466.5z M452.8,468.4l-10.9-2.4v0.1l0.1-0.3l0.1-0.3l0.1-0.3l0.1-0.3l0.1-0.2
		l0.2-0.3l0.1-0.3l0.1-0.2l0.2-0.3l0.2-0.3l0.1-0.3l0.2-0.3l0.1-0.3l0.2-0.2l0.2-0.3l0.2-0.2l0.2-0.3l0.2-0.2l0.2-0.2l0.2-0.2
		l0.2-0.3l0.2-0.2l0.2-0.2l0.2-0.2l0.2-0.2l0.2-0.3l0.2-0.2l0.2-0.2l0.3-0.2l0.2-0.3l0.2-0.2l0.2-0.2l6.3,8.7l0,0l-0.1,0.1h-0.1l0,0
		H454v0.1l0,0l0,0v0.1l0,0l0,0l0,0l0,0v0.1l0,0l0,0l0,0l0,0l0,0l0,0l0,0v0.1l0,0l0,0l0,0l0,0l0,0l0,0v1.1l0,0l0,0l0,0L452.8,468.4z
		 M432.5,493.1l9.4-27.1l10.9,2.4l-9.4,27.1l0,0L432.5,493.1z M443.2,496l-10,7l-0.1-0.1l-0.2-0.2l-0.1-0.3l-0.1-0.3l-0.1-0.3
		l-0.1-0.3l-0.2-0.3l-0.1-0.3l-0.1-0.3v-0.3V500v-0.3v-0.3V499v-0.3v-0.3v-1.6v-0.3v-0.3v-0.3v-0.3v-0.3v-0.3v-0.3l0.1-0.3V494
		l0.1-0.3l0.1-0.3l0.1-0.3l10.9,2.4v0.1l0,0v0.1l0,0v0.2l0,0l0,0l0,0l0,0l0,0l0,0l0,0l0,0l0,0l0,0l0,0l0,0l0,0L443.2,496z
		 M443.2,495.9l-1.5,11.5h-0.3h-0.3h-0.6h-0.3h-0.3h-0.3h-0.3l-0.3-0.1h-0.3l-0.3-0.1H438l-0.3-0.2l-0.3-0.1l-0.4-0.5l-0.3-0.2
		l-0.2-0.1l-0.3-0.2l-0.2-0.2l-0.2-0.2l-0.2-0.2l-0.2-0.2L435,505l-0.2-0.2l-0.2-0.2l-0.2-0.2l-0.2-0.2l-0.2-0.2l-0.2-0.2l-0.2-0.2
		l-0.1-0.3l-0.2-0.2l10-7l0,0l0,0l0,0l0,0h0.1L443.2,495.9z M474.4,507.4h-32.8l1.5-11.5h32.8l4.7,7L474.4,507.4z M476,495.9
		c2.7-0.1,4.9,2.1,5,4.8c0,0.3,0,0.7-0.1,1c-0.5,3.2-3.2,5.6-6.5,5.7L476,495.9z M484.9,490.3l-4.3,12.6l-10.9-2.4L474,488l6.2-4.6
		L484.9,490.3z M474,488c1-3.1,4.1-5,7.4-4.4c2.7,0.6,4.4,3.3,3.8,6c-0.1,0.3-0.1,0.5-0.2,0.8L474,488z M460.4,483.4h19.8l-1.5,11.5
		h-19.8l-4.7-7L460.4,483.4z M458.9,494.9c-2.7,0.1-5-2.1-5.1-4.8c0-0.3,0-0.6,0.1-0.9c0.5-3.2,3.2-5.6,6.5-5.7L458.9,494.9z
		 M470.8,473.7l-5.7,16.7l-10.9-2.4l5.7-16.7l6.2-4.5L470.8,473.7z M459.9,471.3c1-3.1,4.2-5,7.4-4.4c2.7,0.6,4.4,3.3,3.7,5.9
		c-0.1,0.3-0.2,0.6-0.3,0.8L459.9,471.3z M504.2,478.3h-39.6l1.5-11.5h39.6l4.7,7L504.2,478.3z M505.7,466.8c2.7-0.1,5,2.1,5,4.8
		c0,0.3,0,0.6-0.1,0.9c-0.5,3.2-3.2,5.7-6.5,5.7L505.7,466.8z M482.4,521.3l17.2-50.1l10.9,2.4l-17.3,50.1l-6.2,4.6L482.4,521.3z
		 M493.2,523.7c-1.1,3.1-4.2,4.9-7.4,4.4c-2.7-0.6-4.4-3.4-3.7-6.1c0.1-0.2,0.1-0.5,0.2-0.7L493.2,523.7z" />

	<path fill="#363636" d="M588.1,498.3l-6.3-8.7l0,0l0.5-0.5l0.5-0.4l0.5-0.5l0.5-0.4l0.5-0.5l0.5-0.4l0.5-0.4l0.4-0.5l0.5-0.4
		l0.4-0.5l0.4-0.5l0.4-0.4l0.4-0.5l0.4-0.5l0.3-0.5l0.3-0.5l0.3-0.5l0.3-0.5l0.3-0.5l0.3-0.5l0.3-0.5l0.3-0.5l0.3-0.5l0.2-0.5
		l0.2-0.5l0.3-0.6l0.3-0.5l0.2-0.5l0.2-0.5l0.2-0.6l0.2-0.5l0.2-0.5l10.9,2.4l-0.3,0.8l-0.3,0.7l-0.3,0.8l-0.3,0.8l-0.3,0.7
		l-0.3,0.7l-0.4,0.7l-0.3,0.7l-0.4,0.7l-0.5,0.7l-0.4,0.7l-0.4,0.7l-0.5,0.7l-0.5,0.7l-0.5,0.7l-0.5,0.7l-0.5,0.7l-0.5,0.6l-0.5,0.6
		l-0.6,0.7l-0.6,0.6l-0.6,0.6l-0.6,0.6l-0.6,0.6l-0.6,0.6l-0.6,0.6l-0.6,0.6l-0.6,0.6l-0.7,0.6l-0.6,0.6l-0.7,0.5L588.1,498.3
		L588.1,498.3z M564.1,507.3l1.5-11.5h1h0.5h0.5h0.5h0.5l0.5-0.1l0.5-0.1l0.5-0.1l0.5-0.1l0.5-0.1l0.5-0.1l0.5-0.2l0.5-0.1l0.5-0.2
		l0.5-0.1l0.5-0.2l0.5-0.3l0.6-0.2l0.5-0.2l0.5-0.2l0.5-0.2l0.5-0.3l0.5-0.3l0.5-0.3l0.5-0.3l0.5-0.3l0.5-0.3l0.5-0.3l0.6-0.4
		l0.5-0.3l0.5-0.5l6.3,8.7l-0.7,0.5l-0.7,0.5l-0.7,0.5l-0.7,0.5l-0.7,0.5l-0.7,0.5l-0.7,0.4l-0.7,0.5l-0.7,0.4l-0.7,0.4l-0.7,0.4
		l-0.7,0.3l-0.7,0.3l-0.8,0.3l-0.7,0.3l-0.7,0.3l-0.8,0.3l-0.7,0.3l-0.7,0.2l-0.8,0.2l-0.7,0.2l-0.8,0.2l-0.8,0.2l-0.7,0.2l-0.8,0.1
		l-0.7,0.1l-0.8,0.1l-0.8,0.1h-0.7h-0.8h-0.8L564.1,507.3z M557.8,495.8h7.8l-1.5,11.5h-7.8l-3.6-1.5L557.8,495.8z M556.3,507.3
		c-2.7,0.1-5-2.1-5.1-4.8c0-0.3,0-0.6,0.1-1c0.5-3.2,3.2-5.7,6.5-5.7L556.3,507.3z M573,526.7l-20.4-20.9l8.7-8.5l20.4,20.9l-5.1,10
		L573,526.7z M581.8,518.2c2,2.4,1.8,6-0.6,8c0,0,0,0,0,0c-2.1,2.4-5.8,2.6-8.2,0.5L581.8,518.2z M549.5,516.8h28.7l-1.5,11.5h-28.7
		l-3.8-1.7L549.5,516.8z M548,528.2c-2.7,0.1-4.9-2.1-5-4.8c0-0.3,0-0.7,0.1-1c0.5-3.2,3.2-5.7,6.5-5.7L548,528.2z M534.8,497.5
		l18.5,20.9l-9.1,8.1l-18.5-20.9l-0.9-5.3L534.8,497.5z M525.7,505.7c-1.9-2.5-1.5-6.1,1-8.1c2.2-2.3,5.8-2.3,8-0.1c0,0,0,0,0.1,0.1
		L525.7,505.7z M517.5,521.2l7.3-20.9l10.9,2.4l-7.2,20.9l-6.2,4.6L517.5,521.2z M528.5,523.7c-1.1,3.1-4.2,4.9-7.4,4.4
		c-2.7-0.6-4.4-3.4-3.7-6.1c0.1-0.3,0.1-0.5,0.2-0.7L528.5,523.7z M503.9,516.7h19.8l-1.5,11.5h-19.7l-4.7-7L503.9,516.7z
		 M502.5,528.2c-2.7,0.1-5-2.1-5.1-4.8c0-0.3,0-0.6,0.1-0.9c0.5-3.2,3.2-5.6,6.5-5.7L502.5,528.2z M537.3,440.1l-28.6,83.5
		l-10.9-2.4l28.7-83.5l6.2-4.6L537.3,440.1z M526.4,437.8c1-3.1,4.2-4.9,7.4-4.4c2.7,0.6,4.4,3.3,3.7,6c-0.1,0.3-0.1,0.5-0.3,0.8
		L526.4,437.8z M585.6,444.7h-54.4l1.5-11.5h54.4L585.6,444.7z M606.2,443.3l-10.1,6.8l0,0l-0.2-0.3l-0.2-0.3l-0.2-0.3l-0.3-0.3
		l-0.2-0.3l-0.2-0.2l-0.2-0.3l-0.3-0.2l-0.3-0.2l-0.2-0.2l-0.3-0.3l-0.3-0.2l-0.2-0.2l-0.3-0.2l-0.3-0.1l-0.3-0.2l-0.3-0.2l-0.3-0.1
		l-0.3-0.2l-0.3-0.1l-0.3-0.1l-0.3-0.1h-0.4l-0.4-0.1h-0.4l-0.4-0.1h-0.4h-0.5H587h-0.5h-1l1.5-11.5h0.8h0.7h0.7h0.7l0.7,0.1h0.7
		l0.7,0.2l0.7,0.1l0.7,0.2l0.7,0.2l0.7,0.2l0.7,0.2l0.6,0.2l0.6,0.3l0.6,0.3l0.6,0.3l0.6,0.3l0.6,0.3l0.6,0.4l0.5,0.4l0.5,0.4
		l0.6,0.4l0.5,0.5l0.5,0.4l0.5,0.5l0.5,0.5l0.4,0.5l0.5,0.5l0.4,0.6l0.5,0.5l0.4,0.6L606.2,443.3L606.2,443.3z M607.7,466.2
		l-10.9-2.4l0,0l0.2-0.5l0.2-0.5l0.1-0.6l0.1-0.5l0.2-0.5l0.1-0.5l0.1-0.5l0.1-0.5v-0.5v-0.5v-0.4v-0.5v-1.7v-0.4v-0.4v-0.4v-0.4
		v-0.3l-0.1-0.4l-0.1-0.4V453l-0.2-0.4l-0.1-0.3l-0.1-0.4l-0.2-0.3l-0.2-0.4l-0.2-0.3l-0.2-0.3l-0.2-0.3l10.1-6.8l0.3,0.6l0.3,0.6
		l0.3,0.6l0.3,0.6l0.2,0.6l0.3,0.6l0.2,0.7l0.2,0.6l0.2,0.7l0.2,0.7l0.2,0.7l0.1,0.7l0.1,0.7l0.1,0.7v0.7v0.7v0.7v1.5v0.7v0.8v0.7
		l-0.1,0.7l-0.1,0.7l-0.1,0.8l-0.2,0.7l-0.1,0.8l-0.2,0.8l-0.2,0.7l-0.2,0.8l-0.2,0.8l-0.2,0.8L607.7,466.2z M593.2,474.3l3.6-10.5
		l10.9,2.4l-3.5,10.5L593.2,474.3L593.2,474.3z M587.1,468.4l-2.2,6.3l-10.9-2.5l2.2-6.3L587.1,468.4L587.1,468.4z M576.4,465.5
		l11.5-2.3v1.7v0.1v0.3v0.2v0.3v0.1v0.2v0.2v0.1v0.2v0.1v0.2v0.2v0.2v0.1v0.2v0.1v0.2v0.1v0.2v0.2l-10.9-2.4l0,0l0,0l0,0l0,0l0,0
		l0,0l0,0l0,0l0,0l0,0l0,0l0,0l0,0l0,0l0,0l0,0l0,0l0,0l0,0l0,0l0,0l0,0l0,0l0,0L576.4,465.5z M576.4,465.5l10.1-6.8v-0.1v0.1v0.2
		l0.1,0.1v0.1v0.2l0.1,0.1v0.1l0.1,0.1v0.2v0.1v0.2l0.1,0.1v0.2v0.1v0.2v0.1v0.2v0.1v0.2v0.1v0.2v0.1v0.2v0.1v0.2v0.1v0.3v0.2v0.3
		v0.1l-11.5,2.3l0,0l0,0l0,0l0,0l0,0l0,0l0,0l0,0l0,0l0,0l0,0L576.4,465.5z M576.4,465.6l6.7-10.1h-0.1l0.1,0.1h0.1h0.1h0.2l0.1,0.1
		h0.1l0.1,0.1h0.1l0.1,0.1h0.1h0.1l0.1,0.1l0.1,0.1l0.1,0.1l0.1,0.1l0.1,0.1h0.1l0.1,0.1l0.2,0.2l0,0l0.1,0.1l0.1,0.1l0.1,0.1
		l0.1,0.1v0.1v0.1l0.1,0.1l0.1,0.1l0.1,0.1v0.1l0.1,0.1l0.1,0.2l-10.1,6.8l0,0l0,0l0,0l0,0l0,0l0,0l0,0l0,0L576.4,465.6z
		 M576.5,465.7l1.5-11.5h0.6h0.2h0.4h0.2h0.1h0.2h0.2h0.2h0.1h0.2h0.1h0.2h0.2h0.1h0.2h0.1h0.2h0.1h0.2h0.1h0.2h0.1h0.2l0.1,0.1h0.2
		h0.1h0.2l-6.6,11.2l0,0l0,0h0.2l0,0L576.5,465.7z M545.3,454.1h32.8l-1.5,11.5h-32.7l-4.7-7L545.3,454.1z M543.9,465.6
		c-2.7,0.1-5-2.1-5.1-4.8c0-0.3,0-0.6,0.1-0.9c0.5-3.2,3.2-5.6,6.5-5.7L543.9,465.6z M532,479.4l7.2-20.8l10.9,2.5l-7.2,20.9
		l-6.2,4.5L532,479.4z M542.8,481.8c-1.1,3.1-4.2,4.9-7.4,4.3c-2.7-0.6-4.4-3.3-3.8-6c0.1-0.3,0.2-0.6,0.3-0.9L542.8,481.8z
		 M569.4,486.3h-32.8l1.6-11.3h32.7L569.4,486.3z M572.6,474.1l6.2,8.7l0,0l-0.3,0.2l-0.2,0.2l-0.2,0.2l-0.3,0.2l-0.2,0.1l-0.3,0.2
		l-0.3,0.1l-0.3,0.2l-0.3,0.2l-0.2,0.1l-0.3,0.2l-0.3,0.1l-0.3,0.1l-0.3,0.2l-0.3,0.1l-0.3,0.1H574l-0.3,0.1l-0.3,0.1l-0.3,0.1
		l-0.3,0.1h-0.3l-0.3,0.1h-0.3h-0.3h-0.3h-0.3h-0.3h-0.3h-0.3h-0.6l1.5-11.5h0.3l0,0h0.1l0,0h0.1l0,0l0,0l0,0l0,0l0,0h0.1l0,0l0,0
		h0.1l0,0h0.1l0,0l0.1-0.1h0.1h0.1L572.6,474.1z M574.1,472.1l10.9,2.5l0,0l-0.1,0.3l-0.1,0.3l-0.1,0.3l-0.2,0.3l-0.1,0.3l-0.2,0.2
		l-0.1,0.3l-0.2,0.3l-0.1,0.3l-0.2,0.2l-0.2,0.3l-0.2,0.3l-0.2,0.2l-0.1,0.3l-0.2,0.3l-0.2,0.3l-0.2,0.2l-0.2,0.2l-0.2,0.2l-0.2,0.3
		l-0.2,0.2l-0.2,0.3l-0.2,0.2l-0.2,0.2l-0.2,0.2l-0.2,0.2l-0.2,0.2l-0.2,0.2l-0.2,0.2l-0.3,0.2l-0.2,0.2l-0.3,0.2l-6.2-8.7v-0.1h0.1
		l0,0h0.1l0,0l0,0l0,0l0,0l0,0l0,0l0,0l0,0v-0.1l0,0l0,0l0,0l0,0l0,0V474l0,0l0,0l0,0v-0.1l0,0l0,0l0,0l0,0v-0.1l0,0v-0.1l0,0v-0.1
		L574.1,472.1z" />

	<path fill="#363636" d="M621.6,516.8H678l-1.5,11.5h-56.4L621.6,516.8z M602.1,518.1l10.5-6.3v-0.1l0.2,0.3l0.2,0.3l0.2,0.3
		l0.2,0.3l0.2,0.2l0.2,0.2l0.2,0.3l0.2,0.2l0.2,0.3l0.2,0.2l0.2,0.2l0.2,0.2l0.2,0.2l0.2,0.1l0.3,0.2l0.2,0.1l0.3,0.2l0.3,0.1
		l0.2,0.2l0.3,0.1l0.3,0.1l0.3,0.2h0.3h0.3l0.3,0.1h0.4h0.3h0.4h0.4h0.4h0.5h0.4l-1.5,11.5h-0.7h-0.7h-0.7h-0.7h-0.7l-0.7-0.1
		l-0.7-0.2l-0.6-0.1l-0.7-0.2l-0.6-0.2l-0.6-0.2l-0.6-0.2l-0.6-0.3l-0.6-0.2l-0.6-0.3l-0.6-0.3l-0.5-0.3l-0.6-0.3l-0.6-0.4l-0.5-0.4
		l-0.5-0.4l-0.5-0.4l-0.5-0.5l-0.4-0.4l-0.5-0.5l-0.4-0.5l-0.5-0.5l-0.4-0.5l-0.4-0.6l-0.3-0.5l-0.3-0.6l-0.3-0.6L602.1,518.1z
		 M601.1,496.2l10.9,2.3l0,0l-0.1,0.5l-0.2,0.5l-0.1,0.5l-0.1,0.5l-0.2,0.5l-0.1,0.4l-0.1,0.5v0.4l-0.1,0.5v0.4v0.5v0.4v0.5v1.2v0.4
		v0.4v0.3v0.4v0.4l0.1,0.4l0.1,0.3l0.1,0.4l0.1,0.4l0.1,0.3l0.1,0.4l0.2,0.3l0.1,0.4l0.2,0.3l0.1,0.4l0.2,0.3l-10.5,6.3l-0.3-0.6
		l-0.3-0.6l-0.3-0.6l-0.2-0.6l-0.2-0.6l-0.2-0.6l-0.2-0.6l-0.2-0.6l-0.2-0.6l-0.1-0.7l-0.2-0.6v-0.7l-0.1-0.7V509l-0.1-0.7v-0.7
		v-0.7v-0.7v-0.7v-0.7l0.1-0.7v-0.7l0.1-0.7V502l0.2-0.7l0.1-0.7l0.2-0.7l0.1-0.7l0.2-0.7l0.2-0.7l0.2-0.7l0.2-0.7L601.1,496.2z
		 M616,475.7l6.6,8.5l0,0l-0.5,0.4l-0.5,0.4l-0.5,0.4l-0.5,0.4l-0.4,0.5l-0.5,0.4l-0.4,0.4l-0.4,0.4l-0.4,0.4l-0.4,0.4l-0.4,0.4
		l-0.3,0.5l-0.3,0.5l-0.3,0.4l-0.3,0.5L616,491l-0.3,0.5l-0.3,0.4l-0.3,0.5l-0.2,0.5l-0.3,0.5l-0.2,0.4l-0.3,0.5l-0.3,0.5l-0.2,0.5
		l-0.2,0.5l-0.2,0.5l-0.2,0.5l-0.2,0.5l-0.2,0.5l-0.2,0.5l-0.1,0.5l-10.9-2.3l0.3-0.7l0.2-0.7l0.3-0.7l0.3-0.7l0.3-0.7l0.3-0.7
		l0.3-0.7l0.3-0.7l0.4-0.7l0.3-0.7l0.4-0.7l0.4-0.6l0.4-0.7l0.4-0.6l0.5-0.6l0.5-0.6l0.5-0.6l0.5-0.6l0.5-0.6l0.6-0.6l0.5-0.6
		l0.5-0.6l0.5-0.6l0.6-0.6l0.5-0.6l0.6-0.6l0.6-0.5l0.6-0.6l0.6-0.5l0.6-0.5l0.6-0.6L616,475.7L616,475.7z M638.8,466.7l-1.5,11.5
		h-0.9h-0.5h-0.4H635h-0.4h-0.5l-0.4,0.1l-0.5,0.1h-0.4l-0.5,0.2l-0.5,0.1l-0.4,0.1l-0.5,0.2l-0.4,0.1l-0.5,0.2l-0.4,0.2l-0.5,0.2
		l-0.5,0.6l-0.4,0.3l-0.5,0.2l-0.4,0.2l-0.5,0.2l-0.5,0.3l-0.5,0.3l-0.4,0.3l-0.5,0.3l-0.5,0.3l-0.5,0.3l-0.5,0.3l-0.5,0.4l-0.5,0.4
		l-6.6-8.5l0.6-0.5l0.7-0.5l0.6-0.5l0.7-0.5l0.7-0.5l0.7-0.5l0.7-0.4l0.7-0.5l0.7-0.4l0.7-0.4l0.7-0.4l0.7-0.3l0.7-0.3l0.7-0.3
		l0.7-0.3l0.7-0.3l0.7-0.3l0.7-0.3l0.7-0.2l0.7-0.2l0.7-0.2l0.7-0.2l0.7-0.2l0.7-0.1l0.7-0.2l0.7-0.1h0.7l0.7-0.1h0.7h0.7h0.7
		L638.8,466.7z M673.8,478.2h-36.6l1.5-11.5h36.6l4.7,7L673.8,478.2z M675.4,466.7c2.7-0.1,4.9,2,5,4.7c0,0.3,0,0.7-0.1,1
		c-0.5,3.2-3.2,5.7-6.5,5.7L675.4,466.7z M682.2,467.3l-2.2,6.3l-10.9-2.4l2.2-6.3l11,2.3L682.2,467.3z M671.4,465.1l10.2-6.6l0,0
		l0.2,0.3l0.1,0.2l0.2,0.2l0.1,0.2l0.1,0.3l0.1,0.2v0.2l0.1,0.3l0.1,0.3v0.3v0.3v0.2v0.3v0.3v0.2v1.7v0.3v0.2v0.3v0.3v0.3v0.3v0.3
		l-0.1,0.2v0.3l-0.1,0.2v0.3l-11-2.1l0,0L671.4,465.1L671.4,465.1L671.4,465.1L671.4,465.1L671.4,465.1L671.4,465.1L671.4,465.1
		L671.4,465.1L671.4,465.1L671.4,465.1L671.4,465.1L671.4,465.1L671.4,465.1L671.4,465.1L671.4,465.1L671.4,465.1L671.4,465.1
		L671.4,465.1L671.4,465.1z M672.3,465.7l1.5-11.5h0.6h0.3h0.3h0.2h0.3h0.3h0.3h0.3l0.3,0.1h0.2l0.3,0.1h0.2l0.3,0.2h0.3l0.2,0.2
		l0.3,0.1l0.3,0.2l0.2,0.1l0.2,0.2l0.2,0.1l0.2,0.2l0.3,0.2l0.2,0.2l0.2,0.2l0.2,0.2l0.2,0.2l0.1,0.2l0.2,0.2l0.1,0.2l0.2,0.2
		l0.1,0.2l-10.2,6.6l0,0l0,0l0,0l0,0l0,0l0,0l0,0l0,0l0,0l0,0l0,0l0,0l0,0l0,0l0,0l0,0l0,0l0,0h0.2l0,0L672.3,465.7z M625.2,454.2
		h48.5l-1.5,11.5h-48.6l-4.7-7L625.2,454.2z M623.7,465.7c-2.7,0.1-4.9-2-5-4.7c0-0.3,0-0.7,0.1-1c0.5-3.2,3.2-5.7,6.5-5.7
		L623.7,465.7z M637,440.2l-7.1,20.9l-10.9-2.3l7.1-20.9l6.2-4.6L637,440.2z M626,437.9c1-3.1,4.2-5,7.4-4.4
		c2.7,0.6,4.4,3.4,3.7,6.1c-0.1,0.2-0.1,0.5-0.2,0.7L626,437.9z M680.3,444.7h-49.6l1.5-11.5h49.5L680.3,444.7z M700.9,443.3
		l-10.1,6.8l0,0l-0.2-0.3l-0.2-0.3l-0.2-0.3l-0.2-0.3l-0.2-0.3l-0.2-0.2l-0.2-0.3l-0.3-0.2l-0.3-0.2l-0.2-0.2l-0.3-0.3l-0.3-0.2
		l-0.2-0.2l-0.3-0.2l-0.3-0.1l-0.3-0.2l-0.3-0.2l-0.3-0.1l-0.3-0.2l-0.3-0.1l-0.4-0.1l-0.3-0.1h-0.4l-0.4-0.1h-0.4l-0.4-0.1h-0.4
		h-0.5h-0.4h-0.5h-1l1.5-11.5h0.8h0.7h0.7h0.8l0.7,0.1h0.7l0.7,0.2l0.7,0.1l0.7,0.2l0.7,0.2l0.7,0.2l0.7,0.2l0.6,0.2l0.6,0.3
		l0.6,0.3l0.6,0.3l0.6,0.3l0.6,0.3l0.6,0.4l0.5,0.4l0.6,0.4l0.5,0.4l0.5,0.5l0.5,0.4l0.5,0.5l0.5,0.5l0.4,0.5l0.5,0.5l0.4,0.6
		l0.4,0.5l0.4,0.6L700.9,443.3L700.9,443.3z M702.4,466.2l-10.8-2.4l0,0l0.2-0.5l0.2-0.5l0.1-0.6l0.1-0.5l0.2-0.5v-0.5l0.1-0.5
		l0.1-0.4v-0.5v-0.4v-0.5v-0.5v-1.7v-0.4v-0.4V455v-0.4v-0.4l-0.1-0.4l-0.1-0.4l-0.1-0.3l-0.2-0.4l-0.1-0.3l-0.1-0.4l-0.2-0.3
		l-0.2-0.4l-0.2-0.3l-0.2-0.3l-0.2-0.3l10.1-6.8l0.4,0.6l0.3,0.6l0.3,0.6l0.3,0.6l0.3,0.6l0.2,0.7l0.2,0.6l0.2,0.7l0.2,0.6l0.2,0.7
		l0.2,0.7l0.1,0.7l0.1,0.7l0.1,0.7v0.7v0.7v0.7v1.5v0.7v0.7v0.7l-0.1,0.7l-0.1,0.8l-0.1,0.7l-0.2,0.8l-0.1,0.7l-0.2,0.8l-0.2,0.8
		l-0.2,0.7l-0.2,0.8L702.4,466.2L702.4,466.2z M671.7,521.3l19.8-57.4l10.9,2.4l-19.8,57.4l-6.2,4.6L671.7,521.3z M682.7,523.7
		c-1.1,3.1-4.2,4.9-7.4,4.4c-2.7-0.6-4.4-3.4-3.7-6.1c0.1-0.2,0.1-0.5,0.2-0.7L682.7,523.7z M674.3,490.2l-4.3,12.6l-10.9-2.4
		l4.3-12.5l6.2-4.6L674.3,490.2z M663.4,487.9c1-3.1,4.2-5,7.4-4.4c2.7,0.6,4.4,3.4,3.7,6.1c-0.1,0.2-0.1,0.5-0.2,0.7L663.4,487.9z
		 M636,483.3h33.6l-1.5,11.5h-33.6L636,483.3z M633.4,495.4l-6.2-8.7l-0.2,0.2l0.2-0.2l0.2-0.2l0.3-0.2l0.2-0.2l0.2-0.2l0.3-0.2
		l0.3-0.3l0.2-0.2l0.3-0.1l0.2-0.2l0.3-0.1l0.3-0.2l0.3-0.1l0.2-0.1l0.3-0.1l0.3-0.1l0.3-0.1l0.3-0.1l0.3-0.1l0.3-0.1l0.3-0.1h0.3
		h0.3l0.3-0.1h0.3h0.3h0.3h0.3h0.3h0.9l-1.5,11.5h-0.2l0,0H634l0,0l0,0l0,0l0,0l0,0l0,0l0,0l0,0l0,0l0,0L633.4,495.4z M632.6,496.4
		l-10.9-2.2v-0.1l0.1-0.2l0.1-0.3l0.1-0.2l0.1-0.3l0.1-0.3l0.1-0.3l0.1-0.2l0.2-0.2l0.1-0.2l0.2-0.3l0.1-0.2l0.2-0.2l0.1-0.3
		l0.2-0.2l0.1-0.2l0.2-0.2l0.2-0.2l0.2-0.2l0.2-0.2l0.2-0.2l0.2-0.2l0.2-0.3l0.2-0.2l0.2-0.2l0.2-0.2l0.3-0.2l0.2-0.2l0.2-0.2
		l0.3-0.2l0.2-0.2l0.2-0.2l0.2-0.2l6.2,8.7l0,0h-0.1l0,0l0,0l0,0l0,0l0,0l0,0l0,0l0,0l0,0l0,0l0,0l0,0l0,0l0,0l0,0l0,0l0,0v0.1l0,0
		l0,0l0,0l0,0l0,0l0,0l0,0l0,0v0.1l0,0L632.6,496.4z M632.6,496.6l-11.5,2.2v-0.2v-0.2v-0.6v-0.2v-0.6v-0.1v-0.3v-0.2v-0.1v-0.2V496
		v-0.2v-0.1v-0.2v-0.2v-0.1v-0.1v-0.2v-0.1v-0.2v-0.1v-0.2v-0.1l11,2.2l0,0l0,0l0,0l0,0l0,0l0,0l0,0l0,0l0,0l0,0l0,0l0,0l0,0l0,0
		l0,0l0,0l0,0L632.6,496.6z M632.5,496.2l-10.1,6.9l0,0V503l-0.1-0.1v-0.1v-0.2l0,0v-0.2v-0.1v-0.2v-0.1V502v-0.1v-0.1l-0.1-0.2
		v-0.1v-0.3V501v-0.1v-0.2v-0.1v-0.2v-0.1v-0.2v-0.1v-0.1v-0.1v-0.2v-0.1v-0.2v-0.1v-0.2v-0.3l11.5-2.2l0,0l0,0l0,0l0,0l0,0l0,0l0,0
		l0,0l0,0l0,0l0,0l0,0l0,0l0,0L632.5,496.2z M632.3,496l-6.8,10h0.2h-0.2l-0.1-0.1h-0.1h-0.2l-0.1-0.1l-0.2-0.1l0,0l-0.1-0.1h-0.1
		l-0.1-0.1l-0.1-0.1h-0.1v-0.1h-0.1l-0.1-0.1l-0.1-0.1l-0.4-0.5l0,0l-0.1-0.1v-0.1l-0.1-0.1l-0.1-0.1l-0.1-0.2h-0.1V504l-0.1-0.1
		l-0.1-0.1v-0.1l-0.1-0.1l-0.1-0.1v-0.2h-0.1l10.1-6.9l0,0l0,0l0,0l0,0l0,0l0,0l0,0l0,0l0,0l0,0l0,0l0,0L632.3,496z M631.7,495.8
		l-1.5,11.5h-0.4h-0.2h-0.4H629h-0.2h-0.1h-0.2h-0.1h-0.2H628h-0.2h-0.1h-0.2h-0.1h-0.2h-0.1h-0.2h-0.1l-0.2-0.1h-0.2h-0.1l-0.1-0.1
		h-0.2h-0.1l-0.2-0.1h-0.1l-0.2-0.1l6.8-10l0,0l0,0l0,0h-0.1l0,0h-0.1l0,0h-0.2L631.7,495.8z M663.9,507.3h-33.7l1.5-11.5h33.7
		l4.7,7L663.9,507.3z M665.4,495.8c2.7-0.1,5,2.1,5.1,4.8c0,0.3,0,0.6-0.1,0.9c-0.5,3.2-3.2,5.6-6.5,5.7L665.4,495.8z" />

	<path fill="#363636" d="M693.5,516.8h64.3l-1.5,11.5H692l-4.7-7L693.5,516.8z M692,528.2c-2.7,0.1-5-2.1-5.1-4.8
		c0-0.3,0-0.6,0.1-0.9c0.5-3.2,3.2-5.6,6.5-5.7L692,528.2z M726.9,440.2l-28.7,83.5l-10.9-2.4l28.7-83.5l6.2-4.6L726.9,440.2z
		 M716,437.8c1-3.1,4.2-4.9,7.4-4.4c2.7,0.6,4.4,3.2,3.8,5.9c-0.1,0.3-0.2,0.6-0.3,0.9L716,437.8z M740.4,444.8h-19.7l1.5-11.5h19.8
		l4.7,7L740.4,444.8z M741.9,433.3c2.7-0.1,5,2.1,5,4.8c0,0.3,0,0.6-0.1,1c-0.5,3.2-3.2,5.7-6.5,5.7L741.9,433.3z M714.3,500.5
		l21.4-62.6l10.9,2.4l-21.4,62.6l-6.2,4.6L714.3,500.5z M725.2,502.8c-1.1,3.1-4.2,4.9-7.4,4.4c-2.7-0.6-4.4-3.3-3.7-6
		c0.1-0.3,0.1-0.5,0.3-0.8L725.2,502.8z M763.4,507.4H719l1.5-11.5H765l4.7,7L763.4,507.4z M765,495.9c2.7-0.1,4.9,2,5,4.7
		c0,0.3,0,0.7-0.1,1c-0.5,3.2-3.2,5.7-6.5,5.7L765,495.9z M751.6,521.3l7.2-20.9l10.9,2.4l-7.2,20.9l-6.2,4.6L751.6,521.3z
		 M762.5,523.7c-1.1,3.1-4.2,4.9-7.4,4.4c-2.7-0.6-4.4-3.3-3.8-6c0.1-0.3,0.2-0.6,0.3-0.9L762.5,523.7z" />

	<path fill="#363636" d="M832.8,516.8h19.8l-1.5,11.5h-19.8l-4.7-7L832.8,516.8z M831.3,528.2c-2.7,0.1-5-2.1-5-4.8
		c0-0.3,0-0.6,0.1-1c0.5-3.2,3.2-5.7,6.5-5.7L831.3,528.2z M856.5,468.4l-19,55.3l-10.9-2.4l19-55.2L856.5,468.4L856.5,468.4z
		 M845.7,465.5l11.5-2.4v0.2v0.1v1.1v0.1v0.5v0.1v0.3v0.2v0.1v0.2v0.2v0.1v0.2v0.1v0.2v0.1v0.2v0.1v0.2v0.1v0.2v0.2v0.1v0.2
		l-10.9-2.4l0,0l0,0l0,0l0,0l0,0l0,0l0,0l0,0l0,0l0,0l0,0l0,0l0,0l0,0l0,0l0,0l0,0l0,0l0,0l0,0l0,0l0,0v0.1L845.7,465.5z
		 M845.7,465.4l10.2-6.7l-0.1-0.2l0.1,0.1l0.1,0.2v0.1l0.1,0.1v0.2l0.1,0.1v0.2v0.1l0.1,0.1v0.2v0.1v0.1v0.2l0,0v0.2v0.1v0.2v0.1
		v0.2v0.1v0.2v0.1v0.2v0.1v0.2v0.1v0.2v0.5v0.1v0.3l-11.5,2.4l0,0l0,0l0,0l0,0l0,0l0,0l0,0l0,0l0,0l0,0l0,0l0,0l0,0l0,0l0,0
		L845.7,465.4z M845.8,465.5l6.7-10.1h-0.1l0.2,0.1h0.1h0.2h0.1l0.1,0.1l0.2,0.1h0.1h0.2v0.1l0.2,0.1l0.1,0.1h0.1l0.1,0.1l0.1,0.1
		l0.1,0.1l0.2,0.2h0.1l0.1,0.1l0.1,0.1h0.1l0.1,0.2h0.1l0.1,0.2l0.1,0.1h0.1l0.1,0.2l0.1,0.1v0.1l0.1,0.2h0.1v0.2l0.1,0.1l-10.2,6.7
		l0,0l0,0l0,0l0,0l0,0l0,0l0,0l0,0l0,0L845.8,465.5z M846,465.7l1.5-11.5h0.6h0.2h0.5h0.2h0.2h0.2h0.1h0.2h0.2h0.1h0.2h0.1h0.2h0.1
		h0.2h0.1h0.2h0.1h0.2h0.1h0.2h0.1h0.2l0.1,0.1h0.1h0.1h0.2l-6.7,10.1l0,0l0,0h0.1l0,0L846,465.7z M814.7,454.1h32.7l-1.5,11.5
		h-32.7l-4.7-7L814.7,454.1z M813.2,465.6c-2.7,0.1-5-2.1-5.1-4.8c0-0.3,0-0.6,0.1-1c0.5-3.2,3.2-5.7,6.5-5.7L813.2,465.6z
		 M786.9,521.2l21.6-62.5l10.9,2.4l-21.6,62.6l-6.2,4.6L786.9,521.2z M797.8,523.6c-1.1,3.1-4.2,4.9-7.4,4.4c-2.7-0.6-4.4-3.3-3.8-6
		c0.1-0.3,0.2-0.6,0.3-0.9L797.8,523.6z M773.4,516.6h19.8l-1.5,11.5h-19.9l-4.7-7L773.4,516.6z M771.9,528.1
		c-2.7,0.1-5-2.1-5.1-4.8c0-0.3,0-0.6,0.1-1c0.5-3.2,3.2-5.7,6.5-5.7L771.9,528.1z M806.6,440.2L778,523.7l-10.9-2.4l28.6-83.5
		l6.2-4.6L806.6,440.2z M795.7,437.8c1-3.1,4.2-4.9,7.4-4.4c2.7,0.6,4.4,3.4,3.7,6.1c-0.1,0.2-0.1,0.5-0.2,0.7L795.7,437.8z
		 M854.8,444.8h-54.4l1.5-11.5h54.4L854.8,444.8z M875.5,443.3l-10.1,6.8l0,0l-0.2-0.3l-0.2-0.3l-0.3-0.3l-0.2-0.3l-0.2-0.3
		l-0.2-0.2l-0.2-0.3l-0.3-0.2l-0.2-0.2l-0.3-0.2l-0.2-0.3l-0.3-0.2l-0.3-0.2l-0.3-0.2l-0.3-0.1l-0.3-0.2l-0.3-0.2l-0.3-0.1l-0.3-0.2
		l-0.3-0.1l-0.3-0.1l-0.4-0.1h-0.3l-0.4-0.1H858l-0.5-0.1h-0.4h-0.5h-0.4h-0.5h-1l1.5-11.5h0.9h0.8h0.7h0.7l0.7,0.1h0.7l0.7,0.2
		l0.7,0.1l0.7,0.2l0.7,0.2l0.7,0.2l0.6,0.2l0.7,0.2l0.6,0.3l0.6,0.3l0.6,0.3l0.6,0.3l0.6,0.3l0.5,0.4l0.6,0.4l0.5,0.4l0.5,0.4
		l0.6,0.5l0.5,0.4l0.5,0.5l0.5,0.5l0.5,0.5l0.5,0.5l0.4,0.6l0.4,0.5l0.4,0.6l0.4,0.6L875.5,443.3z M876.9,466.3l-10.9-2.4l0,0
		l0.2-0.5l0.2-0.5l0.1-0.6l0.2-0.5l0.1-0.5l0.1-0.5l0.1-0.5v-0.4l0.1-0.5v-0.4v-0.5v-0.5v-0.5v-0.8v-0.4v-0.3v-0.4v-0.4v-0.4
		l-0.1-0.4l-0.1-0.4l-0.1-0.4l-0.1-0.3l-0.1-0.4l-0.1-0.3l-0.2-0.4l-0.1-0.3l-0.2-0.4l-0.1-0.3l-0.2-0.3l-0.2-0.3l10.1-6.8l0.3,0.6
		l0.3,0.6l0.3,0.6l0.3,0.6l0.3,0.6l0.2,0.7l0.2,0.6l0.3,0.7l0.2,0.6l0.1,0.7l0.2,0.7l0.1,0.7l0.1,0.7l0.1,0.7l0.1,0.7v0.7v0.7v0.7
		v0.7v0.7v0.7l-0.1,0.7l-0.1,0.7l-0.1,0.8l-0.1,0.7l-0.2,0.8l-0.1,0.7l-0.2,0.8l-0.2,0.8l-0.2,0.7l-0.2,0.8L876.9,466.3L876.9,466.3
		z M846.3,521.3l19.8-57.4l10.9,2.4l-19.8,57.4l-6.2,4.6L846.3,521.3z M857.2,523.7c-1.1,3.1-4.2,4.9-7.4,4.4
		c-2.7-0.6-4.4-3.2-3.8-5.9c0.1-0.3,0.2-0.6,0.3-0.9L857.2,523.7z" />

	<path fill="#363636" d="M945,519.2l-6.3-8.7l0,0l0.5-0.5l0.6-0.4l0.5-0.4l0.5-0.4l0.5-0.5l0.5-0.4l0.5-0.5l0.4-0.4l0.5-0.5
		l0.4-0.4l0.4-0.5l0.4-0.4l0.4-0.5l0.4-0.4l0.3-0.5l0.3-0.4l0.3-0.5l0.3-0.5l0.3-0.4l0.3-0.5l0.3-0.5l0.3-0.5l0.3-0.5l0.2-0.5
		l0.3-0.5l0.2-0.5l0.3-0.5l0.2-0.5l0.2-0.5l0.2-0.5l0.2-0.6l0.2-0.5l10.9,2.3l-0.3,0.8l-0.3,0.8l-0.3,0.7l-0.3,0.8l-0.3,0.7
		l-0.3,0.7l-0.4,0.8l-0.3,0.7l-0.4,0.7l-0.5,0.7l-0.4,0.7l-0.4,0.7l-0.5,0.7l-0.5,0.7l-0.4,0.7l-0.6,0.7l-0.5,0.7l-0.5,0.7l-0.5,0.6
		l-0.6,0.6l-0.6,0.6l-0.6,0.6l-0.5,0.6l-0.6,0.6l-0.6,0.6l-0.6,0.6l-0.6,0.6l-0.6,0.6l-0.7,0.6l-0.6,0.5l-0.7,0.5l-0.7,0.6
		L945,519.2z M921,528.2l1.5-11.5h0.5h0.5h0.5h0.5h0.5h0.5l0.5-0.1l0.5-0.1h0.5l0.5-0.1l0.5-0.1l0.5-0.1l0.5-0.2l0.5-0.1l0.5-0.2
		l0.5-0.2l0.5-0.2l0.5-0.2l0.5-0.2l0.5-0.2l0.5-0.2l0.5-0.2l0.5-0.3l0.5-0.3l0.5-0.3l0.5-0.3l0.5-0.3l0.5-0.3l0.5-0.3l0.6-0.4
		l0.5-0.4l0.5-0.4l6.3,8.7l-0.7,0.5l-0.7,0.5l-0.7,0.5l-0.7,0.5l-0.7,0.5l-0.7,0.5l-0.7,0.4l-0.7,0.4l-0.7,0.5l-0.7,0.4l-0.7,0.3
		l-0.7,0.4l-0.7,0.3l-0.7,0.3l-0.8,0.3l-0.7,0.3l-0.7,0.3l-0.8,0.3L931,527l-0.8,0.2l-0.7,0.2l-0.8-0.1l-0.7,0.2l-0.8,0.2l-0.8,0.1
		l-0.7,0.1l-0.8,0.1H924h-0.7h-0.8h-0.8h-0.7L921,528.2z M892.9,516.8h29.6l-1.5,11.5h-29.6L892.9,516.8z M872.2,518.2l10.1-6.7l0,0
		l0.2,0.3l0.2,0.3l0.2,0.3l0.2,0.3l0.2,0.3l0.2,0.3l0.2,0.2l0.3,0.2l0.2,0.2l0.3,0.2l0.2,0.2l0.3,0.2l0.3,0.2l0.3,0.2l0.3,0.1
		l0.3,0.2l0.3,0.1l0.3,0.2l0.3,0.1l0.3,0.1l0.3,0.1l0.4,0.2l0.3,0.1h0.4h0.4l0.5,0.1h0.4h0.5h0.5h0.5h0.5h0.5l-1.5,11.5h-0.8h-0.7
		h-0.8h-0.7h-0.7l-0.7-0.1l-0.7-0.2l-0.7-0.1l-0.7-0.2l-0.7-0.2l-0.7-0.2l-0.7-0.2l-0.6-0.2l-0.6-0.3l-0.6-0.2l-0.6-0.3l-0.6-0.3
		l-0.6-0.3l-0.6-0.4l-0.5-0.3l-0.6-0.5l-0.5-0.4l-0.5-0.5l-0.5-0.5l-0.5-0.5l-0.5-0.5l-0.4-0.5l-0.5-0.5l-0.4-0.6l-0.4-0.5l-0.4-0.6
		L872.2,518.2L872.2,518.2z M870.8,495.2l10.9,2.4l0,0l-0.2,0.5l-0.2,0.6l-0.1,0.5l-0.1,0.5l-0.2,0.5l-0.1,0.5l-0.1,0.5l-0.1,0.5
		v0.4v0.5v0.5v0.4v1.7v0.4v0.4v0.4l0.1,0.4v0.4l0.1,0.4l0.1,0.4l0.1,0.4l0.2,0.4v0.4l0.2,0.3l0.2,0.4l0.2,0.4l0.2,0.3l0.2,0.4
		l0.2,0.3l-10.1,6.7l-0.3-0.6l-0.3-0.6l-0.3-0.6l-0.3-0.6l-0.3-0.6l-0.2-0.6l-0.2-0.7l-0.2-0.7l-0.2-0.6l-0.2-0.7l-0.2-0.7l-0.1-0.7
		l-0.1-0.7l-0.1-0.7v-0.7v-0.7v-0.7v-1.5v-0.8v-0.7v-0.7l0.1-0.7l0.1-0.8l0.1-0.7l0.2-0.8l0.1-0.7l0.2-0.8l0.2-0.8l0.2-0.7l0.2-0.8
		L870.8,495.2L870.8,495.2z M901.4,440.2l-19.7,57.4l-10.9-2.4l19.7-57.3l6.2-4.6L901.4,440.2z M890.5,437.8c1-3.1,4.2-4.9,7.4-4.4
		c2.7,0.6,4.4,3.4,3.7,6.1c-0.1,0.2-0.1,0.5-0.2,0.7L890.5,437.8z M915,444.8h-19.8l1.5-11.5h19.7l4.7,7L915,444.8z M916.5,433.3
		c2.7-0.1,5,2.1,5.1,4.8c0,0.3,0,0.6-0.1,0.9c-0.5,3.2-3.2,5.6-6.5,5.7L916.5,433.3z M891.3,493l19-55.2l10.9,2.4l-19,55.2l0,0
		L891.3,493z M902,496l-10,7v-0.1l-0.2-0.2l-0.1-0.3l-0.1-0.3l-0.2-0.3l-0.1-0.3l-0.2-0.3l-0.1-0.2l-0.1-0.3v-0.3l-0.1-0.3v-0.3
		v-0.3V499v-0.3v-0.3v-1.6v-0.3v-0.3v-0.3v-0.3v-0.3v-0.3l0.1-0.3v-0.3l0.1-0.3l0.1-0.3l0.1-0.3l0.1-0.3l10.9,2.4l0,0v0.1v0.1l0,0
		v0.3l0,0l0,0l0,0l0,0l0,0l0,0l0,0L902,496z M902,495.9l-1.5,11.5h-0.3h-0.3h-0.6h-0.3h-0.3h-0.3H898l-0.3-0.1l-0.3-0.1h-0.3h-0.3
		l-0.3-0.2l-0.3-0.1l-0.3-0.1l-0.3-0.1l-0.3-0.1l-0.2-0.2l-0.2-0.1l-0.3-0.2l-0.2-0.2l-0.2-0.2l-0.3-0.2l-0.2-0.2l-0.2-0.2l-0.2-0.2
		l-0.2-0.3l-0.2-0.2l-0.2-0.2l-0.2-0.2l-0.2-0.2l-0.2-0.7L902,495.9L902,495.9L902,495.9L902,495.9L902,495.9L902,495.9L902,495.9
		L902,495.9L902,495.9l0.1,0.1L902,495.9z M926.4,507.3h-26l1.5-11.5h25.9L926.4,507.3z M929.6,495.1l6.3,8.7l0,0l-0.2,0.2l-0.3,0.2
		l-0.3,0.2l-0.3,0.2l-0.2,0.1l-0.3,0.2l-0.2,0.1l-0.3,0.2l-0.3,0.1l-0.2,0.2l-0.3,0.1l-0.3,0.2l-0.3,0.1l-0.3,0.1l-0.3,0.1l-0.3,0.1
		l-0.3,0.1l-0.3,0.1l-0.3,0.1h-0.3h-0.3l-0.3,0.1l-0.3,0.1h-0.3h-0.3h-0.3H928h-0.3h-0.7h-0.3h-0.3l1.5-11.5h0.3l0,0h0.1l0,0h0.1
		l0,0h0.1l0,0l0,0l0,0l0,0h0.1l0,0l0,0h0.1l0,0h0.1l0.1-0.1l0,0h0.1L929.6,495.1z M931,493.1l10.9,2.4v-0.1l-0.1,0.3l-0.1,0.3
		l-0.1,0.3l-0.1,0.3l-0.1,0.3l-0.1,0.3l-0.2,0.3l-0.1,0.3l-0.2,0.2l-0.1,0.3l-0.2,0.3l-0.2,0.3l-0.2,0.3l-0.2,0.2l-0.2,0.3l-0.2,0.2
		l-0.2,0.3l-0.2,0.2l-0.2,0.2l-0.2,0.3l-0.2,0.3l-0.2,0.2l-0.2,0.2l-0.2,0.2l-0.2,0.3l-0.2,0.2l-0.2,0.2l-0.3,0.2l-0.2,0.2l-0.3,0.2
		l-0.2,0.2l-0.2,0.2l-6.3-8.7h0.1l0,0l0,0l0.1-0.1l0,0l0,0l0,0h0.1l0,0l0,0l0,0l0,0l0,0l0,0v-0.1l0,0l0,0l0,0l0,0l0,0l0,0v-0.1l0,0
		l0,0v-0.1l0,0l0,0v-0.1l0,0v-0.1v-0.1l0,0L931,493.1z M960.8,440.2l-19,55.2l-10.9-2.4l19-55.2l6.2-4.6L960.8,440.2z M949.9,437.8
		c1-3.1,4.2-5,7.4-4.4c2.7,0.6,4.4,3.2,3.8,5.9c-0.1,0.3-0.2,0.6-0.3,0.9L949.9,437.8z M974.3,444.8h-19.7l1.5-11.5h19.8l4.7,7
		L974.3,444.8z M975.9,433.3c2.7-0.1,5,2.1,5,4.8c0,0.3,0,0.6-0.1,1c-0.5,3.2-3.2,5.7-6.5,5.7L975.9,433.3z M950,495.2l19.7-57.3
		l10.9,2.4L961,497.5L950,495.2L950,495.2z" />

	<path fill="#363636" d="M1029,454.1h24.7l-1.5,11.5h-24.7l-4.7-7L1029,454.1z M1027.4,465.6c-2.7,0.1-4.9-2-5-4.7
		c0-0.3,0-0.7,0.1-1c0.5-3.2,3.2-5.7,6.5-5.7L1027.4,465.6z M1001.3,521.2l21.5-62.4l10.9,2.4l-21.6,62.6l-6.2,4.6L1001.3,521.2z
		 M1012.2,523.6c-1.1,3.1-4.2,4.9-7.4,4.4c-2.7-0.6-4.4-3.3-3.7-6c0.1-0.3,0.1-0.5,0.3-0.8L1012.2,523.6z M987.7,516.6h19.8
		l-1.5,11.5h-19.8l-4.7-7L987.7,516.6z M986.2,528.1c-2.7,0.1-5-2.1-5.1-4.8c0-0.3,0-0.6,0.1-0.9c0.5-3.2,3.2-5.7,6.5-5.7
		L986.2,528.1z M1013.8,461.1l-21.5,62.6l-10.9-2.4l21.5-62.5l6.2-4.6L1013.8,461.1z M1003,458.7c1-3.1,4.2-5,7.4-4.4
		c2.7,0.6,4.4,3.3,3.7,5.9c-0.1,0.3-0.2,0.6-0.3,0.8L1003,458.7z M984.3,454.1h24.8l-1.5,11.5h-24.9l-4.7-7L984.3,454.1z
		 M982.8,465.6c-2.7,0.1-5-2.1-5.1-4.8c0-0.3,0-0.6,0.1-0.9c0.5-3.2,3.2-5.6,6.5-5.7L982.8,465.6z M996.2,440.1l-7.2,20.9l-10.9-2.4
		l7.1-20.9l6.2-4.6L996.2,440.1z M985.2,437.8c1.1-3.1,4.2-4.9,7.4-4.4c2.7,0.6,4.4,3.3,3.7,6c-0.1,0.3-0.1,0.5-0.2,0.7L985.2,437.8
		z M1059.3,444.7h-69.3l1.5-11.5h69.3l4.7,7L1059.3,444.7z M1060.8,433.3c2.7-0.1,4.9,2.1,5,4.8c0,0.3,0,0.7-0.1,1
		c-0.5,3.2-3.2,5.7-6.5,5.7L1060.8,433.3z M1047.4,458.7l7.1-20.9l10.9,2.4l-7.2,20.9l-6.2,4.6L1047.4,458.7z M1058.3,461.1
		c-1.1,3.1-4.2,4.9-7.4,4.4c-2.7-0.6-4.4-3.3-3.8-5.9c0.1-0.3,0.2-0.6,0.3-0.8L1058.3,461.1z" />

	<path fill="#363636" d="M1131.8,498.3l-6.3-8.7l0,0l0.5-0.5l0.6-0.4l0.5-0.5l0.5-0.4l0.5-0.5l0.4-0.4l0.5-0.4l0.4-0.5
		l0.4-0.4l0.4-0.5l0.4-0.5l0.4-0.4l0.3-0.5l0.4-0.5l0.3-0.5l0.4-0.5l0.3-0.5l0.3-0.5l0.3-0.5l0.3-0.5l0.3-0.5l0.3-0.5l0.3-0.5
		l0.3-0.5l0.2-0.5l0.3-0.6l0.2-0.5l0.2-0.5l0.2-0.5l0.2-0.6l0.2-0.5l0.2-0.5l10.9,2.4l-0.2,0.8l-0.3,0.7l-0.3,0.8l-0.3,0.8l-0.3,0.7
		l-0.3,0.7l-0.3,0.7l-0.4,0.7l-0.4,0.7l-0.4,0.7l-0.4,0.7l-0.5,0.7l-0.4,0.7l-0.5,0.7l-0.5,0.7l-0.5,0.7l-0.5,0.7l-0.5,0.6l-0.5,0.6
		l-0.6,0.7l-0.6,0.6l-0.5,0.6l-0.6,0.6l-0.6,0.6l-0.6,0.6l-0.6,0.6l-0.6,0.6l-0.6,0.6l-0.6,0.6l-0.7,0.6l-0.7,0.5l-0.7,0.5
		L1131.8,498.3z M1107.7,507.3l1.5-11.5h1h0.5h0.5h0.5h0.5l0.5-0.1l0.5-0.1l0.5-0.1l0.5-0.1l0.5-0.1l0.5-0.1l0.5-0.2l0.5-0.1
		l0.5-0.2l0.5-0.1l0.5-0.2l0.5-0.3l0.5-0.2l0.5-0.2l0.5-0.2l0.5-0.2l0.5-0.3l0.5-0.3l0.5-0.3l0.6-0.3l0.5-0.3l0.5-0.3l0.5-0.3
		l0.5-0.4l0.5-0.3l0.5-0.5l6.3,8.7l-0.7,0.5l-0.7,0.5l-0.7,0.5l-0.7,0.5l-0.7,0.5l-0.7,0.5l-0.7,0.4l-0.7,0.5l-0.7,0.4l-0.7,0.4
		l-0.7,0.4l-0.7,0.3l-0.7,0.3l-0.7,0.3l-0.7,0.3l-0.8,0.3l-0.7,0.3l-0.7,0.3l-0.8,0.2l-0.7,0.2l-0.8,0.2l-0.7,0.2l-0.8,0.2l-0.8,0.2
		l-0.7,0.1l-0.8,0.1l-0.8,0.1l-0.7,0.1h-0.8h-0.8h-0.7L1107.7,507.3z M1101.4,495.8h7.8l-1.5,11.5h-7.8l-3.7-1.5L1101.4,495.8z
		 M1099.9,507.3c-2.7,0.1-5-2.1-5.1-4.8c0-0.3,0-0.6,0.1-0.9c0.5-3.2,3.2-5.6,6.5-5.7L1099.9,507.3z M1116.7,526.7l-20.4-20.9
		l8.7-8.5l20.4,20.9l-5.1,10L1116.7,526.7z M1125.4,518.2c2.1,2.4,1.8,5.9-0.5,8c0,0-0.1,0.1-0.1,0.1c-2.1,2.4-5.7,2.6-8.1,0.5
		c0,0,0,0,0,0L1125.4,518.2z M1093.2,516.8h28.7l-1.5,11.5h-28.6l-3.8-1.7L1093.2,516.8z M1091.7,528.2c-2.7,0.1-5-2.1-5.1-4.8
		c0-0.3,0-0.6,0.1-0.9c0.5-3.2,3.2-5.7,6.5-5.7L1091.7,528.2z M1078.4,497.5l18.5,20.9l-9.1,8.1l-18.5-20.9l-0.9-5.3L1078.4,497.5z
		 M1069.4,505.7c-2-2.5-1.5-6.1,1-8.1c2.2-2.3,5.8-2.3,8.1-0.1c0,0,0,0,0,0L1069.4,505.7z M1061.2,521.2l7.3-20.9l10.9,2.4
		l-7.3,20.9l-6.2,4.6L1061.2,521.2z M1072,523.7c-1.1,3.1-4.2,4.9-7.4,4.4c-2.7-0.6-4.4-3.3-3.8-6c0.1-0.3,0.2-0.6,0.3-0.8
		L1072,523.7z M1047.6,516.7h19.8l-1.5,11.5h-19.8l-4.7-7L1047.6,516.7z M1046.1,528.2c-2.7,0.1-5-2.1-5-4.8c0-0.3,0-0.6,0.1-1
		c0.5-3.2,3.2-5.7,6.5-5.7L1046.1,528.2z M1081,440.1l-28.6,83.5l-10.9-2.4l28.7-83.5l6.2-4.6L1081,440.1z M1070.1,437.8
		c1-3.1,4.2-4.9,7.4-4.4c2.7,0.6,4.4,3.2,3.8,5.9c-0.1,0.3-0.2,0.6-0.3,0.9L1070.1,437.8z M1129.2,444.7h-54.4l1.5-11.5h54.5
		L1129.2,444.7z M1149.9,443.3l-10.1,6.8l0,0l-0.2-0.3l-0.2-0.3l-0.2-0.3l-0.2-0.3l-0.2-0.3l-0.2-0.2l-0.2-0.3l-0.2-0.2l-0.3-0.2
		l-0.3-0.2l-0.3-0.3l-0.2-0.2l-0.3-0.2l-0.3-0.2l-0.3-0.1l-0.3-0.2l-0.3-0.2l-0.3-0.1l-0.3-0.2l-0.3-0.1l-0.3-0.1l-0.4-0.1h-0.3
		l-0.4-0.1h-0.4l-0.5-0.1h-0.4h-0.5h-0.4h-0.5h-1l1.5-11.5h0.7h0.8h0.7h0.7l0.7,0.1h0.7l0.7,0.2l0.7,0.1l0.7,0.2l0.7,0.2l0.7,0.2
		l0.6,0.2l0.6,0.2l0.7,0.3l0.6,0.3l0.6,0.3l0.6,0.3l0.6,0.3l0.6,0.4l0.6,0.4l0.5,0.4l0.5,0.4l0.5,0.5l0.5,0.4l0.5,0.5l0.5,0.5
		l0.4,0.5l0.5,0.5l0.4,0.6l0.4,0.5l0.4,0.6L1149.9,443.3L1149.9,443.3z M1151.3,466.2l-10.9-2.4l0,0l0.2-0.5l0.2-0.5l0.1-0.6
		l0.2-0.5l0.1-0.5l0.1-0.5l0.1-0.5v-0.5l0.1-0.5v-0.5v-0.4v-0.5v-0.5v-0.8v-0.4v-0.3v-0.4V455v-0.4l-0.1-0.5l-0.1-0.4l-0.1-0.4
		l-0.1-0.3l-0.1-0.4l-0.1-0.3l-0.2-0.4l-0.1-0.3l-0.2-0.4l-0.1-0.3l-0.2-0.3l-0.2-0.3l10.1-6.8l0.3,0.6l0.3,0.6l0.3,0.6l0.3,0.6
		l0.3,0.6l0.2,0.6l0.2,0.7l0.2,0.6l0.2,0.7l0.2,0.7l0.2,0.7l0.1,0.7l0.1,0.7l0.1,0.7v0.7v0.7v3v0.8v0.7l-0.1,0.7l-0.1,0.7l-0.1,0.8
		l-0.2,0.7l-0.1,0.8l-0.2,0.8l-0.2,0.7l-0.2,0.8l-0.2,0.8L1151.3,466.2L1151.3,466.2z M1136.9,474.3l3.5-10.5l10.9,2.4l-3.5,10.5
		L1136.9,474.3z M1130.8,468.4l-2.2,6.3l-10.8-2.5l2.2-6.3L1130.8,468.4L1130.8,468.4z M1120,465.5l11.5-2.3v0.2v0.2v0.7v0.2v0.6
		v0.1v0.3v0.2v0.1v0.2v0.2v0.1v0.2v0.1v0.2v0.2v0.2v0.1v0.2v0.1v0.2v0.1v0.2v0.2l-10.9-2.4l0,0l0,0l0,0l0,0l0,0l0,0l0,0l0,0l0,0l0,0
		l0,0l0,0l0,0l0,0l0,0l0,0l0,0l0,0l0,0l0,0l0,0l0,0l0,0l0,0L1120,465.5z M1120,465.5l10.1-6.8v-0.1l0.1,0.1v0.2l0.1,0.1v0.1l0.1,0.2
		v0.1l0.1,0.1v0.1l0.1,0.2v0.1v0.2v0.1v0.2v0.1v0.2v0.1v0.2v0.1v0.2v0.1v0.2v0.1v0.2v0.1v0.2v0.1v0.2v0.3v0.1v0.3l-11.5,2.3l0,0l0,0
		l0,0l0,0l0,0l0,0l0,0l0,0l0,0l0,0l0,0L1120,465.5z M1120,465.6l6.7-10.1h-0.1l0.2,0.1l0,0h0.2h0.1l0.1,0.1h0.2v0.1h0.2l0.1,0.1h0.2
		h0.1v0.1l0.2,0.1v0.1l0.1,0.1l0.1,0.1h0.1l0.1,0.1l0.1,0.2l0,0l0.1,0.1l0.1,0.1l0.1,0.1l0.1,0.1l0.1,0.1v0.1l0.1,0.1v0.1l0.1,0.1
		l0.1,0.1l0.1,0.1v0.2l-10.1,6.8l0,0l0,0l0,0l0,0l0,0l0,0l0,0L1120,465.6z M1120.2,465.7l1.5-11.5h0.6h0.1h0.5h0.2h0.1h0.2h0.1h0.2
		h0.1h0.2h0.2h0.2h0.1h0.2h0.1h0.2h0.2h0.1h0.2h0.1h0.2h0.1h0.2l0.1,0.1h0.2h0.1h0.2l-6.7,10.1l0,0l0,0h0.1l0,0L1120.2,465.7z
		 M1089.1,454.1h32.7l-1.5,11.5h-32.8l-4.6-7L1089.1,454.1z M1087.5,465.6c-2.7,0.1-4.9-2-5-4.7c0-0.3,0-0.7,0.1-1
		c0.5-3.2,3.2-5.7,6.5-5.7L1087.5,465.6z M1075.6,479.4l7.3-20.8l10.9,2.5l-7.3,20.9l-6.1,4.4L1075.6,479.4z M1086.4,482
		c-1.1,3.1-4.2,4.9-7.4,4.3c-2.7-0.6-4.4-3.3-3.8-6c0.1-0.3,0.2-0.6,0.3-0.8L1086.4,482z M1113,486.5h-32.6l1.5-11.5h32.8
		L1113,486.5z M1116.2,474.3l6.3,8.7l0,0l-0.2,0.2l-0.2,0.2l-0.3,0.2l-0.2,0.2l-0.3,0.1l-0.3,0.2l-0.3,0.1l-0.3,0.2l-0.2,0.2
		l-0.3,0.1l-0.3,0.2l-0.3,0.1l-0.3,0.1l-0.3,0.2l-0.3,0.1l-0.3,0.1h-0.3l-0.3,0.1l-0.3,0.1l-0.3,0.1l-0.3,0.1h-0.3l-0.3,0.1h-0.3
		h-0.3h-0.3h-0.3h-0.3h-0.3h-0.3h-0.6l1.5-11.5h0.3l0,0h0.1l0,0h0.1l0,0l0,0l0,0h0.1l0,0l0,0h0.1l0,0l0,0h0.1l0,0h0.1l0.1-0.1l0,0
		l0,0L1116.2,474.3z M1117.7,472.3l10.8,2.5l0,0l-0.1,0.3l-0.1,0.3l-0.1,0.3l-0.1,0.3l-0.1,0.3l-0.2,0.2l-0.1,0.3l-0.2,0.3l-0.1,0.3
		l-0.2,0.2l-0.1,0.3l-0.2,0.3l-0.1,0.2l-0.2,0.3l-0.2,0.3l-0.2,0.3l-0.2,0.2l-0.2,0.2l-0.2,0.2l-0.2,0.2l-0.3,0.2l-0.2,0.3l-0.2,0.2
		l-0.2,0.2l-0.3,0.2l-0.2,0.2l-0.2,0.2l-0.2,0.2l-0.2,0.2l-0.2,0.2l-0.3,0.2l-0.2,0.2l-6.3-8.7l0.1-0.1l0,0h0.1l0,0h0.1l0,0l0,0l0,0
		l0,0l0,0h0.1l0,0v-0.1l0,0l0,0l0,0l0,0l0,0V474l0,0l0,0l0,0v-0.1l0,0l0,0l0,0l0,0v-0.1l0,0v-0.1l0,0v-0.1L1117.7,472.3z" />

	<path fill="#363636" d="M1193,487.6l47.4-52.1l8.1,7l-47.4,52.2l-9.5-4.7L1193,487.6z M1201.1,494.7c-2,2.4-5.6,2.9-8.2,1
		c-2.2-2.2-2.3-5.7-0.1-8c0,0,0.1-0.1,0.1-0.1L1201.1,494.7z M1180.8,521.2l10.8-31.3l10.9,2.4l-10.8,31.3l-6.2,4.6L1180.8,521.2z
		 M1191.7,523.7c-1,3.1-4.2,5-7.4,4.4c-2.7-0.6-4.4-3.3-3.8-6c0.1-0.3,0.2-0.6,0.3-0.9L1191.7,523.7z M1167.2,516.7h19.8l-1.5,11.5
		h-19.8l-4.7-7L1167.2,516.7z M1165.7,528.2c-2.7,0.1-5-2.1-5.1-4.8c0-0.3,0-0.6,0.1-1c0.5-3.2,3.2-5.7,6.5-5.7L1165.7,528.2z
		 M1182.7,492.3l-10.7,31.4l-10.9-2.4l10.7-31.4l11.1-0.7L1182.7,492.3z M1171.8,489.9c1.1-3.1,4.2-4.9,7.4-4.4
		c2.7,0.6,4.4,3.3,3.8,5.9c-0.1,0.3-0.2,0.6-0.3,0.8L1171.8,489.9z M1171,437.1l11.8,52.1l-11.3,3.9l-11.8-52.1l6.4-7.7L1171,437.1z
		 M1159.7,440.9c-0.5-3.2,1.3-6.3,4.4-7.3c2.6-1.1,5.5,0.1,6.6,2.7c0.1,0.3,0.2,0.5,0.3,0.8L1159.7,440.9z M1189.9,444.7h-25.3
		l1.5-11.5h25.3l5,4.4L1189.9,444.7z M1191.4,433.3c2.7-0.1,5,2.1,5.1,4.8c0,0.3,0,0.6-0.1,0.9c-0.5,3.2-3.2,5.6-6.5,5.7
		L1191.4,433.3z M1188.4,471.6l-3.5-31.2l11.5-2.7l3.5,31.3l-1.4,4.6L1188.4,471.6z M1199.8,469c0.2,3.3-1.9,6.2-5.1,7
		c-2.6,0.8-5.4-0.7-6.2-3.4c-0.1-0.3-0.1-0.6-0.2-0.9L1199.8,469z M1223.6,442.2l-25.1,31.3l-8.7-6.4l25.1-31.2l5.1-2.6
		L1223.6,442.2z M1214.9,435.9c1.9-2.6,5.5-3.3,8.2-1.6c2.3,1.9,2.6,5.4,0.7,7.7c-0.1,0.1-0.1,0.1-0.2,0.2L1214.9,435.9z
		 M1243.7,444.7h-25.2l1.5-11.5h25.2l3.3,9.2L1243.7,444.7z M1245.1,433.3c2.7-0.1,5,2.1,5.1,4.8c0,0.3,0,0.6-0.1,0.9
		c-0.5,3.2-3.2,5.6-6.5,5.7L1245.1,433.3z" />

	<polygon fill="#FFFFFF" points="114.7,522.5 94.9,522.5 123.6,439 143.3,439 " />

	<path fill="#FFFFFF" d="M213.4,522.5h-19.8l19-55.3c0.3-0.9,0.5-1.9,0.4-2.8c0-0.8-0.3-1.6-0.7-2.3c-0.4-0.7-1-1.2-1.7-1.5
		c-0.7-0.4-1.5-0.6-2.4-0.6h-32.7L154,522.5h-19.8l28.7-83.5h54.4c6.8,0,11.8,2.6,14.9,7.7c3.1,5.1,3.5,11.2,1,18.3L213.4,522.5z" />

	<polygon fill="#FFFFFF" points="319.8,459.9 295.1,459.9 273.5,522.5 253.7,522.5 275.3,459.9 250.5,459.9 257.6,439
		326.9,439" />

	<path fill="#FFFFFF" d="M413.1,464c-2.5,6.9-7,12.9-12.8,17.4c-6.2,5-12.4,7.6-18.7,7.6H345l-2.1,6.2
		c-0.3,0.8-0.4,1.6-0.3,2.4c0,0.7,0.3,1.4,0.6,2c0.3,0.6,0.8,1.1,1.4,1.4c0.6,0.4,1.4,0.6,2.1,0.5h48.4l-7.2,20.9h-49.4
		c-6.8,0-11.8-2.6-14.9-7.7c-3.1-5.1-3.5-11.4-1-18.5l10.8-31.3c2.6-7.3,7.3-13.7,13.6-18.3c6.6-5.1,13.3-7.7,20.1-7.7h31.6
		c6.3,0,10.8,2.5,13.5,7.6C415,451.7,415.3,457.5,413.1,464z M392.5,466.1c0.6-1.4,0.6-3.1,0-4.5c-0.8-1.2-2.2-1.9-3.6-1.7h-27.7
		c-1.8,0.1-3.5,0.7-4.8,1.9c-1.5,1.1-2.7,2.6-3.3,4.3l-2.2,6.3h33.7c1.8,0,3.4-0.6,4.8-1.7C390.8,469.5,391.8,467.9,392.5,466.1
		L392.5,466.1z" />

	<path fill="#FFFFFF" d="M487.7,522.5h-54.4c-6.8,0-11.8-2.6-14.9-7.7c-3.1-5.1-3.5-11.4-1-18.5l10.9-31.3
		c2.6-7.3,7.3-13.7,13.6-18.3c6.6-5.1,13.3-7.7,20.1-7.7h49.4l-7.1,20.9h-47.6c-2,0.1-4,0.8-5.6,2.1c-1.7,1.3-3.1,3.1-3.8,5.1
		l-9.5,27c-0.7,1.7-0.6,3.6,0.3,5.2c0.9,1.4,2.5,2.2,4.2,2.1h32.8l4.2-12.5h-19.7l5.7-16.7H505L487.7,522.5z" />

	<path fill="#FFFFFF" d="M598.6,475.5c-2.6,7.4-7.3,13.8-13.6,18.4c-6.6,5.1-13.4,7.7-20.1,7.7h-7.8l20.4,20.9h-28.7
		l-18.5-20.9l-7.2,20.9h-19.8l28.7-83.5h54.4c6.8,0,11.8,2.6,14.9,7.7c3.1,5.1,3.5,11.2,1,18.3L598.6,475.5z M579.4,473.4l2.3-6.2
		c0.3-0.9,0.5-1.9,0.4-2.8c0-0.8-0.3-1.6-0.7-2.3c-0.4-0.7-1-1.2-1.7-1.5c-0.7-0.4-1.6-0.6-2.4-0.6h-32.7l-7.2,20.8h32.7
		c2.1-0.1,4-0.8,5.6-2.1C577.5,477.3,578.8,475.5,579.4,473.4L579.4,473.4z" />

	<path fill="#FFFFFF" d="M677.2,522.5h-56.3c-6.3,0-10.8-2.5-13.6-7.5s-2.9-11-0.7-17.5c2.5-6.9,6.9-13,12.7-17.4
		c6.2-5,12.5-7.6,18.8-7.6h36.6l2.2-6.3c0.6-1.4,0.4-3-0.3-4.4c-0.7-1.2-2.1-1.9-3.5-1.7h-48.6l7.1-20.9h49.6
		c6.8,0,11.8,2.6,14.9,7.7c3.1,5.1,3.5,11.2,1,18.3L677.2,522.5z M664.6,501.6l4.3-12.5h-33.7c-1.8,0-3.5,0.7-4.9,1.9
		c-1.5,1.1-2.6,2.6-3.3,4.3c-0.3,0.8-0.4,1.6-0.3,2.4c0,0.7,0.2,1.4,0.6,2c0.3,0.6,0.8,1.1,1.4,1.4c0.6,0.4,1.4,0.6,2.1,0.5
		L664.6,501.6z" />

	<polygon fill="#FFFFFF" points="757,522.5 692.7,522.5 721.4,439 741.1,439 719.8,501.6 764.3,501.6 " />
	<path fill="#FFFFFF" d="M851.8,522.5H832l19-55.3c0.3-0.9,0.5-1.9,0.5-2.8c-0.1-0.8-0.3-1.6-0.7-2.3
		c-0.4-0.7-0.9-1.2-1.6-1.5c-0.7-0.4-1.6-0.6-2.4-0.6h-32.7l-21.6,62.6h-19.8l28.6-83.5h54.5c6.8,0,11.8,2.6,14.9,7.7
		c3.1,5.1,3.5,11.2,1,18.3L851.8,522.5z" />

	<path fill="#FFFFFF" d="M955.5,496.3c-2.6,7.4-7.3,13.8-13.6,18.5c-6.6,5.1-13.3,7.7-20.1,7.7h-29.7
		c-6.8,0-11.8-2.6-14.9-7.7c-3.1-5.1-3.5-11.4-1-18.5l19.7-57.3h19.8l-18.9,55.2c-0.7,1.7-0.6,3.6,0.3,5.2c0.9,1.4,2.5,2.3,4.1,2.2
		h25.9c2-0.1,4-0.8,5.5-2.2c1.8-1.3,3.1-3.1,3.7-5.2l19-55.2h19.8L955.5,496.3z" />

	<polygon fill="#FFFFFF" points="1052.9,459.9 1028.2,459.9 1006.6,522.5 986.9,522.5 1008.4,459.9 983.5,459.9 990.7,439
		1060,439 " />
	<path fill="#FFFFFF" d="M1142.3,475.5c-2.6,7.4-7.4,13.8-13.6,18.4c-6.6,5.1-13.4,7.7-20.2,7.7h-7.8l20.5,20.9h-28.6
		l-18.5-20.9l-7.3,20.9h-19.8l28.6-83.5h54.4c6.8,0,11.8,2.6,14.9,7.7c3.2,5.1,3.5,11.2,1,18.3L1142.3,475.5z M1123.1,473.4l2.2-6.2
		c0.3-0.9,0.5-1.9,0.4-2.8c-0.1-0.8-0.3-1.6-0.7-2.3c-0.4-0.7-1-1.2-1.6-1.5c-0.7-0.4-1.6-0.6-2.4-0.6h-32.7l-7.3,20.8h32.7
		c2.1-0.1,4.1-0.8,5.6-2.1C1121.1,477.3,1122.4,475.5,1123.1,473.4L1123.1,473.4z" />
	<polygon fill="#FFFFFF" points="1244.5,439 1197,491.2 1186.2,522.5 1166.4,522.5 1177.2,491.2 1165.3,439 1190.6,439
		1194.1,470.3 1219.2,439" />

	<rect x="172" y="896.3" fill="none" width="40" height="17" />
</svg>
